%TF.GenerationSoftware,KiCad,Pcbnew,8.0.1*%
%TF.CreationDate,2024-04-28T12:21:24+02:00*%
%TF.ProjectId,IoT-Project,496f542d-5072-46f6-9a65-63742e6b6963,rev?*%
%TF.SameCoordinates,Original*%
%TF.FileFunction,Drillmap*%
%TF.FilePolarity,Positive*%
%FSLAX45Y45*%
G04 Gerber Fmt 4.5, Leading zero omitted, Abs format (unit mm)*
G04 Created by KiCad (PCBNEW 8.0.1) date 2024-04-28 12:21:24*
%MOMM*%
%LPD*%
G01*
G04 APERTURE LIST*
%ADD10C,0.050000*%
%ADD11C,0.200000*%
%ADD12C,0.100000*%
%ADD13C,0.120000*%
G04 APERTURE END LIST*
D10*
X12900000Y-16250000D02*
X3900000Y-16250000D01*
X13150000Y-8900000D02*
X13150000Y-16000000D01*
X3900000Y-8650000D02*
X12900000Y-8650000D01*
X3650000Y-16000000D02*
X3650000Y-8900000D01*
X3900000Y-16250000D02*
G75*
G02*
X3650000Y-16000000I0J250000D01*
G01*
X13150000Y-16000000D02*
G75*
G02*
X12900000Y-16250000I-250000J0D01*
G01*
X3650000Y-8900000D02*
G75*
G02*
X3900000Y-8650000I250000J0D01*
G01*
X12900000Y-8650000D02*
G75*
G02*
X13150000Y-8900000I0J-250000D01*
G01*
D11*
D12*
X4062500Y-12112500D02*
X4137500Y-12187500D01*
X4137500Y-12112500D02*
X4062500Y-12187500D01*
X4062500Y-12312500D02*
X4137500Y-12387500D01*
X4137500Y-12312500D02*
X4062500Y-12387500D01*
X4062500Y-12512500D02*
X4137500Y-12587500D01*
X4137500Y-12512500D02*
X4062500Y-12587500D01*
X4062500Y-12712500D02*
X4137500Y-12787500D01*
X4137500Y-12712500D02*
X4062500Y-12787500D01*
X10258500Y-11162500D02*
X10333500Y-11237500D01*
X10333500Y-11162500D02*
X10258500Y-11237500D01*
X10385500Y-11162500D02*
X10460500Y-11237500D01*
X10460500Y-11162500D02*
X10385500Y-11237500D01*
X10512500Y-11162500D02*
X10587500Y-11237500D01*
X10587500Y-11162500D02*
X10512500Y-11237500D01*
X5640000Y-11934000D02*
G75*
G02*
X5560000Y-11934000I-40000J0D01*
G01*
X5560000Y-11934000D02*
G75*
G02*
X5640000Y-11934000I40000J0D01*
G01*
X5640000Y-12950000D02*
G75*
G02*
X5560000Y-12950000I-40000J0D01*
G01*
X5560000Y-12950000D02*
G75*
G02*
X5640000Y-12950000I40000J0D01*
G01*
X6190000Y-11950000D02*
G75*
G02*
X6110000Y-11950000I-40000J0D01*
G01*
X6110000Y-11950000D02*
G75*
G02*
X6190000Y-11950000I40000J0D01*
G01*
X6190000Y-12966000D02*
G75*
G02*
X6110000Y-12966000I-40000J0D01*
G01*
X6110000Y-12966000D02*
G75*
G02*
X6190000Y-12966000I40000J0D01*
G01*
X6790000Y-11950000D02*
G75*
G02*
X6710000Y-11950000I-40000J0D01*
G01*
X6710000Y-11950000D02*
G75*
G02*
X6790000Y-11950000I40000J0D01*
G01*
X6790000Y-12966000D02*
G75*
G02*
X6710000Y-12966000I-40000J0D01*
G01*
X6710000Y-12966000D02*
G75*
G02*
X6790000Y-12966000I40000J0D01*
G01*
X8340000Y-11950000D02*
G75*
G02*
X8260000Y-11950000I-40000J0D01*
G01*
X8260000Y-11950000D02*
G75*
G02*
X8340000Y-11950000I40000J0D01*
G01*
X8340000Y-12966000D02*
G75*
G02*
X8260000Y-12966000I-40000J0D01*
G01*
X8260000Y-12966000D02*
G75*
G02*
X8340000Y-12966000I40000J0D01*
G01*
X8940000Y-11950000D02*
G75*
G02*
X8860000Y-11950000I-40000J0D01*
G01*
X8860000Y-11950000D02*
G75*
G02*
X8940000Y-11950000I40000J0D01*
G01*
X8940000Y-12966000D02*
G75*
G02*
X8860000Y-12966000I-40000J0D01*
G01*
X8860000Y-12966000D02*
G75*
G02*
X8940000Y-12966000I40000J0D01*
G01*
X9540000Y-11950000D02*
G75*
G02*
X9460000Y-11950000I-40000J0D01*
G01*
X9460000Y-11950000D02*
G75*
G02*
X9540000Y-11950000I40000J0D01*
G01*
X9540000Y-12966000D02*
G75*
G02*
X9460000Y-12966000I-40000J0D01*
G01*
X9460000Y-12966000D02*
G75*
G02*
X9540000Y-12966000I40000J0D01*
G01*
X10090000Y-11950000D02*
G75*
G02*
X10010000Y-11950000I-40000J0D01*
G01*
X10010000Y-11950000D02*
G75*
G02*
X10090000Y-11950000I40000J0D01*
G01*
X10090000Y-12966000D02*
G75*
G02*
X10010000Y-12966000I-40000J0D01*
G01*
X10010000Y-12966000D02*
G75*
G02*
X10090000Y-12966000I40000J0D01*
G01*
X10690000Y-11950000D02*
G75*
G02*
X10610000Y-11950000I-40000J0D01*
G01*
X10610000Y-11950000D02*
G75*
G02*
X10690000Y-11950000I40000J0D01*
G01*
X10690000Y-12966000D02*
G75*
G02*
X10610000Y-12966000I-40000J0D01*
G01*
X10610000Y-12966000D02*
G75*
G02*
X10690000Y-12966000I40000J0D01*
G01*
X5373500Y-9205000D02*
X5373500Y-9295000D01*
X5328500Y-9250000D02*
X5418500Y-9250000D01*
X5373500Y-15605000D02*
X5373500Y-15695000D01*
X5328500Y-15650000D02*
X5418500Y-15650000D01*
X5627500Y-9205000D02*
X5627500Y-9295000D01*
X5582500Y-9250000D02*
X5672500Y-9250000D01*
X5627500Y-15605000D02*
X5627500Y-15695000D01*
X5582500Y-15650000D02*
X5672500Y-15650000D01*
X9173500Y-9205000D02*
X9173500Y-9295000D01*
X9128500Y-9250000D02*
X9218500Y-9250000D01*
X9173500Y-15605000D02*
X9173500Y-15695000D01*
X9128500Y-15650000D02*
X9218500Y-15650000D01*
X9427500Y-9205000D02*
X9427500Y-9295000D01*
X9382500Y-9250000D02*
X9472500Y-9250000D01*
X9427500Y-15605000D02*
X9427500Y-15695000D01*
X9382500Y-15650000D02*
X9472500Y-15650000D01*
X12073500Y-12175000D02*
X12073500Y-12265000D01*
X12028500Y-12220000D02*
X12118500Y-12220000D01*
X12327500Y-12175000D02*
X12327500Y-12265000D01*
X12282500Y-12220000D02*
X12372500Y-12220000D01*
X5515356Y-9906356D02*
X5515356Y-9835644D01*
X5444644Y-9835644D01*
X5444644Y-9906356D01*
X5515356Y-9906356D01*
X5515356Y-10160356D02*
X5515356Y-10089644D01*
X5444644Y-10089644D01*
X5444644Y-10160356D01*
X5515356Y-10160356D01*
X5769356Y-9906356D02*
X5769356Y-9835644D01*
X5698644Y-9835644D01*
X5698644Y-9906356D01*
X5769356Y-9906356D01*
X5769356Y-10160356D02*
X5769356Y-10089644D01*
X5698644Y-10089644D01*
X5698644Y-10160356D01*
X5769356Y-10160356D01*
X6023356Y-9906356D02*
X6023356Y-9835644D01*
X5952644Y-9835644D01*
X5952644Y-9906356D01*
X6023356Y-9906356D01*
X6023356Y-10160356D02*
X6023356Y-10089644D01*
X5952644Y-10089644D01*
X5952644Y-10160356D01*
X6023356Y-10160356D01*
X6277356Y-9906356D02*
X6277356Y-9835644D01*
X6206644Y-9835644D01*
X6206644Y-9906356D01*
X6277356Y-9906356D01*
X6277356Y-10160356D02*
X6277356Y-10089644D01*
X6206644Y-10089644D01*
X6206644Y-10160356D01*
X6277356Y-10160356D01*
X6531356Y-9906356D02*
X6531356Y-9835644D01*
X6460644Y-9835644D01*
X6460644Y-9906356D01*
X6531356Y-9906356D01*
X6531356Y-10160356D02*
X6531356Y-10089644D01*
X6460644Y-10089644D01*
X6460644Y-10160356D01*
X6531356Y-10160356D01*
X6785356Y-9906356D02*
X6785356Y-9835644D01*
X6714644Y-9835644D01*
X6714644Y-9906356D01*
X6785356Y-9906356D01*
X6785356Y-10160356D02*
X6785356Y-10089644D01*
X6714644Y-10089644D01*
X6714644Y-10160356D01*
X6785356Y-10160356D01*
X7039356Y-9906356D02*
X7039356Y-9835644D01*
X6968644Y-9835644D01*
X6968644Y-9906356D01*
X7039356Y-9906356D01*
X7039356Y-10160356D02*
X7039356Y-10089644D01*
X6968644Y-10089644D01*
X6968644Y-10160356D01*
X7039356Y-10160356D01*
X7293356Y-9906356D02*
X7293356Y-9835644D01*
X7222644Y-9835644D01*
X7222644Y-9906356D01*
X7293356Y-9906356D01*
X7293356Y-10160356D02*
X7293356Y-10089644D01*
X7222644Y-10089644D01*
X7222644Y-10160356D01*
X7293356Y-10160356D01*
X7547356Y-9906356D02*
X7547356Y-9835644D01*
X7476644Y-9835644D01*
X7476644Y-9906356D01*
X7547356Y-9906356D01*
X7547356Y-10160356D02*
X7547356Y-10089644D01*
X7476644Y-10089644D01*
X7476644Y-10160356D01*
X7547356Y-10160356D01*
X7801356Y-9906356D02*
X7801356Y-9835644D01*
X7730644Y-9835644D01*
X7730644Y-9906356D01*
X7801356Y-9906356D01*
X7801356Y-10160356D02*
X7801356Y-10089644D01*
X7730644Y-10089644D01*
X7730644Y-10160356D01*
X7801356Y-10160356D01*
X8055356Y-9906356D02*
X8055356Y-9835644D01*
X7984644Y-9835644D01*
X7984644Y-9906356D01*
X8055356Y-9906356D01*
X8055356Y-10160356D02*
X8055356Y-10089644D01*
X7984644Y-10089644D01*
X7984644Y-10160356D01*
X8055356Y-10160356D01*
X8309356Y-9906356D02*
X8309356Y-9835644D01*
X8238644Y-9835644D01*
X8238644Y-9906356D01*
X8309356Y-9906356D01*
X8309356Y-10160356D02*
X8309356Y-10089644D01*
X8238644Y-10089644D01*
X8238644Y-10160356D01*
X8309356Y-10160356D01*
X8563356Y-9906356D02*
X8563356Y-9835644D01*
X8492644Y-9835644D01*
X8492644Y-9906356D01*
X8563356Y-9906356D01*
X8563356Y-10160356D02*
X8563356Y-10089644D01*
X8492644Y-10089644D01*
X8492644Y-10160356D01*
X8563356Y-10160356D01*
X8817356Y-9906356D02*
X8817356Y-9835644D01*
X8746644Y-9835644D01*
X8746644Y-9906356D01*
X8817356Y-9906356D01*
X8817356Y-10160356D02*
X8817356Y-10089644D01*
X8746644Y-10089644D01*
X8746644Y-10160356D01*
X8817356Y-10160356D01*
X9071356Y-9906356D02*
X9071356Y-9835644D01*
X9000644Y-9835644D01*
X9000644Y-9906356D01*
X9071356Y-9906356D01*
X9071356Y-10160356D02*
X9071356Y-10089644D01*
X9000644Y-10089644D01*
X9000644Y-10160356D01*
X9071356Y-10160356D01*
X9325356Y-9906356D02*
X9325356Y-9835644D01*
X9254644Y-9835644D01*
X9254644Y-9906356D01*
X9325356Y-9906356D01*
X9325356Y-10160356D02*
X9325356Y-10089644D01*
X9254644Y-10089644D01*
X9254644Y-10160356D01*
X9325356Y-10160356D01*
X9579356Y-9906356D02*
X9579356Y-9835644D01*
X9508644Y-9835644D01*
X9508644Y-9906356D01*
X9579356Y-9906356D01*
X9579356Y-10160356D02*
X9579356Y-10089644D01*
X9508644Y-10089644D01*
X9508644Y-10160356D01*
X9579356Y-10160356D01*
X9833356Y-9906356D02*
X9833356Y-9835644D01*
X9762644Y-9835644D01*
X9762644Y-9906356D01*
X9833356Y-9906356D01*
X9833356Y-10160356D02*
X9833356Y-10089644D01*
X9762644Y-10089644D01*
X9762644Y-10160356D01*
X9833356Y-10160356D01*
X10087356Y-9906356D02*
X10087356Y-9835644D01*
X10016644Y-9835644D01*
X10016644Y-9906356D01*
X10087356Y-9906356D01*
X10087356Y-10160356D02*
X10087356Y-10089644D01*
X10016644Y-10089644D01*
X10016644Y-10160356D01*
X10087356Y-10160356D01*
X10341356Y-9906356D02*
X10341356Y-9835644D01*
X10270644Y-9835644D01*
X10270644Y-9906356D01*
X10341356Y-9906356D01*
X10341356Y-10160356D02*
X10341356Y-10089644D01*
X10270644Y-10089644D01*
X10270644Y-10160356D01*
X10341356Y-10160356D01*
X11863356Y-9335356D02*
X11863356Y-9264644D01*
X11792644Y-9264644D01*
X11792644Y-9335356D01*
X11863356Y-9335356D01*
X11863356Y-9965356D02*
X11863356Y-9894644D01*
X11792644Y-9894644D01*
X11792644Y-9965356D01*
X11863356Y-9965356D01*
X11863356Y-15005356D02*
X11863356Y-14934644D01*
X11792644Y-14934644D01*
X11792644Y-15005356D01*
X11863356Y-15005356D01*
X11863356Y-15635356D02*
X11863356Y-15564644D01*
X11792644Y-15564644D01*
X11792644Y-15635356D01*
X11863356Y-15635356D01*
X12117356Y-9335356D02*
X12117356Y-9264644D01*
X12046644Y-9264644D01*
X12046644Y-9335356D01*
X12117356Y-9335356D01*
X12117356Y-9965356D02*
X12117356Y-9894644D01*
X12046644Y-9894644D01*
X12046644Y-9965356D01*
X12117356Y-9965356D01*
X12117356Y-15005356D02*
X12117356Y-14934644D01*
X12046644Y-14934644D01*
X12046644Y-15005356D01*
X12117356Y-15005356D01*
X12117356Y-15635356D02*
X12117356Y-15564644D01*
X12046644Y-15564644D01*
X12046644Y-15635356D01*
X12117356Y-15635356D01*
X12235356Y-10655356D02*
X12235356Y-10584644D01*
X12164644Y-10584644D01*
X12164644Y-10655356D01*
X12235356Y-10655356D01*
X12235356Y-11415356D02*
X12235356Y-11344644D01*
X12164644Y-11344644D01*
X12164644Y-11415356D01*
X12235356Y-11415356D01*
X12371356Y-9335356D02*
X12371356Y-9264644D01*
X12300644Y-9264644D01*
X12300644Y-9335356D01*
X12371356Y-9335356D01*
X12371356Y-9965356D02*
X12371356Y-9894644D01*
X12300644Y-9894644D01*
X12300644Y-9965356D01*
X12371356Y-9965356D01*
X12371356Y-15005356D02*
X12371356Y-14934644D01*
X12300644Y-14934644D01*
X12300644Y-15005356D01*
X12371356Y-15005356D01*
X12371356Y-15635356D02*
X12371356Y-15564644D01*
X12300644Y-15564644D01*
X12300644Y-15635356D01*
X12371356Y-15635356D01*
X12625356Y-9335356D02*
X12625356Y-9264644D01*
X12554644Y-9264644D01*
X12554644Y-9335356D01*
X12625356Y-9335356D01*
X12625356Y-9965356D02*
X12625356Y-9894644D01*
X12554644Y-9894644D01*
X12554644Y-9965356D01*
X12625356Y-9965356D01*
X12625356Y-15005356D02*
X12625356Y-14934644D01*
X12554644Y-14934644D01*
X12554644Y-15005356D01*
X12625356Y-15005356D01*
X12625356Y-15635356D02*
X12625356Y-15564644D01*
X12554644Y-15564644D01*
X12554644Y-15635356D01*
X12625356Y-15635356D01*
D13*
X11950000Y-13060000D02*
X12010000Y-13000000D01*
X11950000Y-12940000D01*
X11890000Y-13000000D01*
X11950000Y-13060000D01*
X11950000Y-14310000D02*
X12010000Y-14250000D01*
X11950000Y-14190000D01*
X11890000Y-14250000D01*
X11950000Y-14310000D01*
X12450000Y-13060000D02*
X12510000Y-13000000D01*
X12450000Y-12940000D01*
X12390000Y-13000000D01*
X12450000Y-13060000D01*
X12450000Y-14310000D02*
X12510000Y-14250000D01*
X12450000Y-14190000D01*
X12390000Y-14250000D01*
X12450000Y-14310000D01*
D11*
X3908277Y-16563984D02*
X3908277Y-16363984D01*
X3908277Y-16363984D02*
X3955896Y-16363984D01*
X3955896Y-16363984D02*
X3984467Y-16373508D01*
X3984467Y-16373508D02*
X4003515Y-16392555D01*
X4003515Y-16392555D02*
X4013039Y-16411603D01*
X4013039Y-16411603D02*
X4022562Y-16449698D01*
X4022562Y-16449698D02*
X4022562Y-16478269D01*
X4022562Y-16478269D02*
X4013039Y-16516365D01*
X4013039Y-16516365D02*
X4003515Y-16535412D01*
X4003515Y-16535412D02*
X3984467Y-16554460D01*
X3984467Y-16554460D02*
X3955896Y-16563984D01*
X3955896Y-16563984D02*
X3908277Y-16563984D01*
X4108277Y-16563984D02*
X4108277Y-16430650D01*
X4108277Y-16468746D02*
X4117801Y-16449698D01*
X4117801Y-16449698D02*
X4127324Y-16440174D01*
X4127324Y-16440174D02*
X4146372Y-16430650D01*
X4146372Y-16430650D02*
X4165420Y-16430650D01*
X4232086Y-16563984D02*
X4232086Y-16430650D01*
X4232086Y-16363984D02*
X4222563Y-16373508D01*
X4222563Y-16373508D02*
X4232086Y-16383031D01*
X4232086Y-16383031D02*
X4241610Y-16373508D01*
X4241610Y-16373508D02*
X4232086Y-16363984D01*
X4232086Y-16363984D02*
X4232086Y-16383031D01*
X4355896Y-16563984D02*
X4336848Y-16554460D01*
X4336848Y-16554460D02*
X4327324Y-16535412D01*
X4327324Y-16535412D02*
X4327324Y-16363984D01*
X4460658Y-16563984D02*
X4441610Y-16554460D01*
X4441610Y-16554460D02*
X4432086Y-16535412D01*
X4432086Y-16535412D02*
X4432086Y-16363984D01*
X4689229Y-16563984D02*
X4689229Y-16363984D01*
X4689229Y-16363984D02*
X4755896Y-16506841D01*
X4755896Y-16506841D02*
X4822563Y-16363984D01*
X4822563Y-16363984D02*
X4822563Y-16563984D01*
X5003515Y-16563984D02*
X5003515Y-16459222D01*
X5003515Y-16459222D02*
X4993991Y-16440174D01*
X4993991Y-16440174D02*
X4974944Y-16430650D01*
X4974944Y-16430650D02*
X4936848Y-16430650D01*
X4936848Y-16430650D02*
X4917801Y-16440174D01*
X5003515Y-16554460D02*
X4984467Y-16563984D01*
X4984467Y-16563984D02*
X4936848Y-16563984D01*
X4936848Y-16563984D02*
X4917801Y-16554460D01*
X4917801Y-16554460D02*
X4908277Y-16535412D01*
X4908277Y-16535412D02*
X4908277Y-16516365D01*
X4908277Y-16516365D02*
X4917801Y-16497317D01*
X4917801Y-16497317D02*
X4936848Y-16487793D01*
X4936848Y-16487793D02*
X4984467Y-16487793D01*
X4984467Y-16487793D02*
X5003515Y-16478269D01*
X5098753Y-16430650D02*
X5098753Y-16630650D01*
X5098753Y-16440174D02*
X5117801Y-16430650D01*
X5117801Y-16430650D02*
X5155896Y-16430650D01*
X5155896Y-16430650D02*
X5174944Y-16440174D01*
X5174944Y-16440174D02*
X5184467Y-16449698D01*
X5184467Y-16449698D02*
X5193991Y-16468746D01*
X5193991Y-16468746D02*
X5193991Y-16525888D01*
X5193991Y-16525888D02*
X5184467Y-16544936D01*
X5184467Y-16544936D02*
X5174944Y-16554460D01*
X5174944Y-16554460D02*
X5155896Y-16563984D01*
X5155896Y-16563984D02*
X5117801Y-16563984D01*
X5117801Y-16563984D02*
X5098753Y-16554460D01*
X5279705Y-16544936D02*
X5289229Y-16554460D01*
X5289229Y-16554460D02*
X5279705Y-16563984D01*
X5279705Y-16563984D02*
X5270182Y-16554460D01*
X5270182Y-16554460D02*
X5279705Y-16544936D01*
X5279705Y-16544936D02*
X5279705Y-16563984D01*
X5279705Y-16440174D02*
X5289229Y-16449698D01*
X5289229Y-16449698D02*
X5279705Y-16459222D01*
X5279705Y-16459222D02*
X5270182Y-16449698D01*
X5270182Y-16449698D02*
X5279705Y-16440174D01*
X5279705Y-16440174D02*
X5279705Y-16459222D01*
D12*
X3572500Y-16855000D02*
X3647500Y-16930000D01*
X3647500Y-16855000D02*
X3572500Y-16930000D01*
D11*
X3946372Y-16783984D02*
X3965420Y-16783984D01*
X3965420Y-16783984D02*
X3984467Y-16793508D01*
X3984467Y-16793508D02*
X3993991Y-16803031D01*
X3993991Y-16803031D02*
X4003515Y-16822079D01*
X4003515Y-16822079D02*
X4013039Y-16860174D01*
X4013039Y-16860174D02*
X4013039Y-16907793D01*
X4013039Y-16907793D02*
X4003515Y-16945889D01*
X4003515Y-16945889D02*
X3993991Y-16964936D01*
X3993991Y-16964936D02*
X3984467Y-16974460D01*
X3984467Y-16974460D02*
X3965420Y-16983984D01*
X3965420Y-16983984D02*
X3946372Y-16983984D01*
X3946372Y-16983984D02*
X3927324Y-16974460D01*
X3927324Y-16974460D02*
X3917801Y-16964936D01*
X3917801Y-16964936D02*
X3908277Y-16945889D01*
X3908277Y-16945889D02*
X3898753Y-16907793D01*
X3898753Y-16907793D02*
X3898753Y-16860174D01*
X3898753Y-16860174D02*
X3908277Y-16822079D01*
X3908277Y-16822079D02*
X3917801Y-16803031D01*
X3917801Y-16803031D02*
X3927324Y-16793508D01*
X3927324Y-16793508D02*
X3946372Y-16783984D01*
X4098753Y-16964936D02*
X4108277Y-16974460D01*
X4108277Y-16974460D02*
X4098753Y-16983984D01*
X4098753Y-16983984D02*
X4089229Y-16974460D01*
X4089229Y-16974460D02*
X4098753Y-16964936D01*
X4098753Y-16964936D02*
X4098753Y-16983984D01*
X4174943Y-16783984D02*
X4308277Y-16783984D01*
X4308277Y-16783984D02*
X4222563Y-16983984D01*
X4479705Y-16783984D02*
X4384467Y-16783984D01*
X4384467Y-16783984D02*
X4374944Y-16879222D01*
X4374944Y-16879222D02*
X4384467Y-16869698D01*
X4384467Y-16869698D02*
X4403515Y-16860174D01*
X4403515Y-16860174D02*
X4451134Y-16860174D01*
X4451134Y-16860174D02*
X4470182Y-16869698D01*
X4470182Y-16869698D02*
X4479705Y-16879222D01*
X4479705Y-16879222D02*
X4489229Y-16898270D01*
X4489229Y-16898270D02*
X4489229Y-16945889D01*
X4489229Y-16945889D02*
X4479705Y-16964936D01*
X4479705Y-16964936D02*
X4470182Y-16974460D01*
X4470182Y-16974460D02*
X4451134Y-16983984D01*
X4451134Y-16983984D02*
X4403515Y-16983984D01*
X4403515Y-16983984D02*
X4384467Y-16974460D01*
X4384467Y-16974460D02*
X4374944Y-16964936D01*
X4613039Y-16783984D02*
X4632086Y-16783984D01*
X4632086Y-16783984D02*
X4651134Y-16793508D01*
X4651134Y-16793508D02*
X4660658Y-16803031D01*
X4660658Y-16803031D02*
X4670182Y-16822079D01*
X4670182Y-16822079D02*
X4679705Y-16860174D01*
X4679705Y-16860174D02*
X4679705Y-16907793D01*
X4679705Y-16907793D02*
X4670182Y-16945889D01*
X4670182Y-16945889D02*
X4660658Y-16964936D01*
X4660658Y-16964936D02*
X4651134Y-16974460D01*
X4651134Y-16974460D02*
X4632086Y-16983984D01*
X4632086Y-16983984D02*
X4613039Y-16983984D01*
X4613039Y-16983984D02*
X4593991Y-16974460D01*
X4593991Y-16974460D02*
X4584467Y-16964936D01*
X4584467Y-16964936D02*
X4574944Y-16945889D01*
X4574944Y-16945889D02*
X4565420Y-16907793D01*
X4565420Y-16907793D02*
X4565420Y-16860174D01*
X4565420Y-16860174D02*
X4574944Y-16822079D01*
X4574944Y-16822079D02*
X4584467Y-16803031D01*
X4584467Y-16803031D02*
X4593991Y-16793508D01*
X4593991Y-16793508D02*
X4613039Y-16783984D01*
X4765420Y-16983984D02*
X4765420Y-16850650D01*
X4765420Y-16869698D02*
X4774944Y-16860174D01*
X4774944Y-16860174D02*
X4793991Y-16850650D01*
X4793991Y-16850650D02*
X4822563Y-16850650D01*
X4822563Y-16850650D02*
X4841610Y-16860174D01*
X4841610Y-16860174D02*
X4851134Y-16879222D01*
X4851134Y-16879222D02*
X4851134Y-16983984D01*
X4851134Y-16879222D02*
X4860658Y-16860174D01*
X4860658Y-16860174D02*
X4879705Y-16850650D01*
X4879705Y-16850650D02*
X4908277Y-16850650D01*
X4908277Y-16850650D02*
X4927325Y-16860174D01*
X4927325Y-16860174D02*
X4936848Y-16879222D01*
X4936848Y-16879222D02*
X4936848Y-16983984D01*
X5032086Y-16983984D02*
X5032086Y-16850650D01*
X5032086Y-16869698D02*
X5041610Y-16860174D01*
X5041610Y-16860174D02*
X5060658Y-16850650D01*
X5060658Y-16850650D02*
X5089229Y-16850650D01*
X5089229Y-16850650D02*
X5108277Y-16860174D01*
X5108277Y-16860174D02*
X5117801Y-16879222D01*
X5117801Y-16879222D02*
X5117801Y-16983984D01*
X5117801Y-16879222D02*
X5127325Y-16860174D01*
X5127325Y-16860174D02*
X5146372Y-16850650D01*
X5146372Y-16850650D02*
X5174944Y-16850650D01*
X5174944Y-16850650D02*
X5193991Y-16860174D01*
X5193991Y-16860174D02*
X5203515Y-16879222D01*
X5203515Y-16879222D02*
X5203515Y-16983984D01*
X5593991Y-16774460D02*
X5422563Y-17031603D01*
X5851134Y-16783984D02*
X5870182Y-16783984D01*
X5870182Y-16783984D02*
X5889229Y-16793508D01*
X5889229Y-16793508D02*
X5898753Y-16803031D01*
X5898753Y-16803031D02*
X5908277Y-16822079D01*
X5908277Y-16822079D02*
X5917801Y-16860174D01*
X5917801Y-16860174D02*
X5917801Y-16907793D01*
X5917801Y-16907793D02*
X5908277Y-16945889D01*
X5908277Y-16945889D02*
X5898753Y-16964936D01*
X5898753Y-16964936D02*
X5889229Y-16974460D01*
X5889229Y-16974460D02*
X5870182Y-16983984D01*
X5870182Y-16983984D02*
X5851134Y-16983984D01*
X5851134Y-16983984D02*
X5832086Y-16974460D01*
X5832086Y-16974460D02*
X5822563Y-16964936D01*
X5822563Y-16964936D02*
X5813039Y-16945889D01*
X5813039Y-16945889D02*
X5803515Y-16907793D01*
X5803515Y-16907793D02*
X5803515Y-16860174D01*
X5803515Y-16860174D02*
X5813039Y-16822079D01*
X5813039Y-16822079D02*
X5822563Y-16803031D01*
X5822563Y-16803031D02*
X5832086Y-16793508D01*
X5832086Y-16793508D02*
X5851134Y-16783984D01*
X6003515Y-16964936D02*
X6013039Y-16974460D01*
X6013039Y-16974460D02*
X6003515Y-16983984D01*
X6003515Y-16983984D02*
X5993991Y-16974460D01*
X5993991Y-16974460D02*
X6003515Y-16964936D01*
X6003515Y-16964936D02*
X6003515Y-16983984D01*
X6136848Y-16783984D02*
X6155896Y-16783984D01*
X6155896Y-16783984D02*
X6174944Y-16793508D01*
X6174944Y-16793508D02*
X6184467Y-16803031D01*
X6184467Y-16803031D02*
X6193991Y-16822079D01*
X6193991Y-16822079D02*
X6203515Y-16860174D01*
X6203515Y-16860174D02*
X6203515Y-16907793D01*
X6203515Y-16907793D02*
X6193991Y-16945889D01*
X6193991Y-16945889D02*
X6184467Y-16964936D01*
X6184467Y-16964936D02*
X6174944Y-16974460D01*
X6174944Y-16974460D02*
X6155896Y-16983984D01*
X6155896Y-16983984D02*
X6136848Y-16983984D01*
X6136848Y-16983984D02*
X6117801Y-16974460D01*
X6117801Y-16974460D02*
X6108277Y-16964936D01*
X6108277Y-16964936D02*
X6098753Y-16945889D01*
X6098753Y-16945889D02*
X6089229Y-16907793D01*
X6089229Y-16907793D02*
X6089229Y-16860174D01*
X6089229Y-16860174D02*
X6098753Y-16822079D01*
X6098753Y-16822079D02*
X6108277Y-16803031D01*
X6108277Y-16803031D02*
X6117801Y-16793508D01*
X6117801Y-16793508D02*
X6136848Y-16783984D01*
X6279706Y-16803031D02*
X6289229Y-16793508D01*
X6289229Y-16793508D02*
X6308277Y-16783984D01*
X6308277Y-16783984D02*
X6355896Y-16783984D01*
X6355896Y-16783984D02*
X6374944Y-16793508D01*
X6374944Y-16793508D02*
X6384467Y-16803031D01*
X6384467Y-16803031D02*
X6393991Y-16822079D01*
X6393991Y-16822079D02*
X6393991Y-16841127D01*
X6393991Y-16841127D02*
X6384467Y-16869698D01*
X6384467Y-16869698D02*
X6270182Y-16983984D01*
X6270182Y-16983984D02*
X6393991Y-16983984D01*
X6489229Y-16983984D02*
X6527325Y-16983984D01*
X6527325Y-16983984D02*
X6546372Y-16974460D01*
X6546372Y-16974460D02*
X6555896Y-16964936D01*
X6555896Y-16964936D02*
X6574944Y-16936365D01*
X6574944Y-16936365D02*
X6584467Y-16898270D01*
X6584467Y-16898270D02*
X6584467Y-16822079D01*
X6584467Y-16822079D02*
X6574944Y-16803031D01*
X6574944Y-16803031D02*
X6565420Y-16793508D01*
X6565420Y-16793508D02*
X6546372Y-16783984D01*
X6546372Y-16783984D02*
X6508277Y-16783984D01*
X6508277Y-16783984D02*
X6489229Y-16793508D01*
X6489229Y-16793508D02*
X6479706Y-16803031D01*
X6479706Y-16803031D02*
X6470182Y-16822079D01*
X6470182Y-16822079D02*
X6470182Y-16869698D01*
X6470182Y-16869698D02*
X6479706Y-16888746D01*
X6479706Y-16888746D02*
X6489229Y-16898270D01*
X6489229Y-16898270D02*
X6508277Y-16907793D01*
X6508277Y-16907793D02*
X6546372Y-16907793D01*
X6546372Y-16907793D02*
X6565420Y-16898270D01*
X6565420Y-16898270D02*
X6574944Y-16888746D01*
X6574944Y-16888746D02*
X6584467Y-16869698D01*
X6765420Y-16783984D02*
X6670182Y-16783984D01*
X6670182Y-16783984D02*
X6660658Y-16879222D01*
X6660658Y-16879222D02*
X6670182Y-16869698D01*
X6670182Y-16869698D02*
X6689229Y-16860174D01*
X6689229Y-16860174D02*
X6736848Y-16860174D01*
X6736848Y-16860174D02*
X6755896Y-16869698D01*
X6755896Y-16869698D02*
X6765420Y-16879222D01*
X6765420Y-16879222D02*
X6774944Y-16898270D01*
X6774944Y-16898270D02*
X6774944Y-16945889D01*
X6774944Y-16945889D02*
X6765420Y-16964936D01*
X6765420Y-16964936D02*
X6755896Y-16974460D01*
X6755896Y-16974460D02*
X6736848Y-16983984D01*
X6736848Y-16983984D02*
X6689229Y-16983984D01*
X6689229Y-16983984D02*
X6670182Y-16974460D01*
X6670182Y-16974460D02*
X6660658Y-16964936D01*
X6851134Y-16783984D02*
X6851134Y-16822079D01*
X6927325Y-16783984D02*
X6927325Y-16822079D01*
X7222563Y-17060174D02*
X7213039Y-17050650D01*
X7213039Y-17050650D02*
X7193991Y-17022079D01*
X7193991Y-17022079D02*
X7184468Y-17003031D01*
X7184468Y-17003031D02*
X7174944Y-16974460D01*
X7174944Y-16974460D02*
X7165420Y-16926841D01*
X7165420Y-16926841D02*
X7165420Y-16888746D01*
X7165420Y-16888746D02*
X7174944Y-16841127D01*
X7174944Y-16841127D02*
X7184468Y-16812555D01*
X7184468Y-16812555D02*
X7193991Y-16793508D01*
X7193991Y-16793508D02*
X7213039Y-16764936D01*
X7213039Y-16764936D02*
X7222563Y-16755412D01*
X7279706Y-16783984D02*
X7413039Y-16783984D01*
X7413039Y-16783984D02*
X7327325Y-16983984D01*
X7641610Y-16983984D02*
X7641610Y-16783984D01*
X7727325Y-16983984D02*
X7727325Y-16879222D01*
X7727325Y-16879222D02*
X7717801Y-16860174D01*
X7717801Y-16860174D02*
X7698753Y-16850650D01*
X7698753Y-16850650D02*
X7670182Y-16850650D01*
X7670182Y-16850650D02*
X7651134Y-16860174D01*
X7651134Y-16860174D02*
X7641610Y-16869698D01*
X7851134Y-16983984D02*
X7832087Y-16974460D01*
X7832087Y-16974460D02*
X7822563Y-16964936D01*
X7822563Y-16964936D02*
X7813039Y-16945889D01*
X7813039Y-16945889D02*
X7813039Y-16888746D01*
X7813039Y-16888746D02*
X7822563Y-16869698D01*
X7822563Y-16869698D02*
X7832087Y-16860174D01*
X7832087Y-16860174D02*
X7851134Y-16850650D01*
X7851134Y-16850650D02*
X7879706Y-16850650D01*
X7879706Y-16850650D02*
X7898753Y-16860174D01*
X7898753Y-16860174D02*
X7908277Y-16869698D01*
X7908277Y-16869698D02*
X7917801Y-16888746D01*
X7917801Y-16888746D02*
X7917801Y-16945889D01*
X7917801Y-16945889D02*
X7908277Y-16964936D01*
X7908277Y-16964936D02*
X7898753Y-16974460D01*
X7898753Y-16974460D02*
X7879706Y-16983984D01*
X7879706Y-16983984D02*
X7851134Y-16983984D01*
X8032087Y-16983984D02*
X8013039Y-16974460D01*
X8013039Y-16974460D02*
X8003515Y-16955412D01*
X8003515Y-16955412D02*
X8003515Y-16783984D01*
X8184468Y-16974460D02*
X8165420Y-16983984D01*
X8165420Y-16983984D02*
X8127325Y-16983984D01*
X8127325Y-16983984D02*
X8108277Y-16974460D01*
X8108277Y-16974460D02*
X8098753Y-16955412D01*
X8098753Y-16955412D02*
X8098753Y-16879222D01*
X8098753Y-16879222D02*
X8108277Y-16860174D01*
X8108277Y-16860174D02*
X8127325Y-16850650D01*
X8127325Y-16850650D02*
X8165420Y-16850650D01*
X8165420Y-16850650D02*
X8184468Y-16860174D01*
X8184468Y-16860174D02*
X8193991Y-16879222D01*
X8193991Y-16879222D02*
X8193991Y-16898270D01*
X8193991Y-16898270D02*
X8098753Y-16917317D01*
X8270182Y-16974460D02*
X8289230Y-16983984D01*
X8289230Y-16983984D02*
X8327325Y-16983984D01*
X8327325Y-16983984D02*
X8346372Y-16974460D01*
X8346372Y-16974460D02*
X8355896Y-16955412D01*
X8355896Y-16955412D02*
X8355896Y-16945889D01*
X8355896Y-16945889D02*
X8346372Y-16926841D01*
X8346372Y-16926841D02*
X8327325Y-16917317D01*
X8327325Y-16917317D02*
X8298753Y-16917317D01*
X8298753Y-16917317D02*
X8279706Y-16907793D01*
X8279706Y-16907793D02*
X8270182Y-16888746D01*
X8270182Y-16888746D02*
X8270182Y-16879222D01*
X8270182Y-16879222D02*
X8279706Y-16860174D01*
X8279706Y-16860174D02*
X8298753Y-16850650D01*
X8298753Y-16850650D02*
X8327325Y-16850650D01*
X8327325Y-16850650D02*
X8346372Y-16860174D01*
X8422563Y-17060174D02*
X8432087Y-17050650D01*
X8432087Y-17050650D02*
X8451134Y-17022079D01*
X8451134Y-17022079D02*
X8460658Y-17003031D01*
X8460658Y-17003031D02*
X8470182Y-16974460D01*
X8470182Y-16974460D02*
X8479706Y-16926841D01*
X8479706Y-16926841D02*
X8479706Y-16888746D01*
X8479706Y-16888746D02*
X8470182Y-16841127D01*
X8470182Y-16841127D02*
X8460658Y-16812555D01*
X8460658Y-16812555D02*
X8451134Y-16793508D01*
X8451134Y-16793508D02*
X8432087Y-16764936D01*
X8432087Y-16764936D02*
X8422563Y-16755412D01*
D12*
X3647500Y-17156500D02*
G75*
G02*
X3567500Y-17156500I-40000J0D01*
G01*
X3567500Y-17156500D02*
G75*
G02*
X3647500Y-17156500I40000J0D01*
G01*
D11*
X3946372Y-17047984D02*
X3965420Y-17047984D01*
X3965420Y-17047984D02*
X3984467Y-17057508D01*
X3984467Y-17057508D02*
X3993991Y-17067031D01*
X3993991Y-17067031D02*
X4003515Y-17086079D01*
X4003515Y-17086079D02*
X4013039Y-17124174D01*
X4013039Y-17124174D02*
X4013039Y-17171793D01*
X4013039Y-17171793D02*
X4003515Y-17209889D01*
X4003515Y-17209889D02*
X3993991Y-17228936D01*
X3993991Y-17228936D02*
X3984467Y-17238460D01*
X3984467Y-17238460D02*
X3965420Y-17247984D01*
X3965420Y-17247984D02*
X3946372Y-17247984D01*
X3946372Y-17247984D02*
X3927324Y-17238460D01*
X3927324Y-17238460D02*
X3917801Y-17228936D01*
X3917801Y-17228936D02*
X3908277Y-17209889D01*
X3908277Y-17209889D02*
X3898753Y-17171793D01*
X3898753Y-17171793D02*
X3898753Y-17124174D01*
X3898753Y-17124174D02*
X3908277Y-17086079D01*
X3908277Y-17086079D02*
X3917801Y-17067031D01*
X3917801Y-17067031D02*
X3927324Y-17057508D01*
X3927324Y-17057508D02*
X3946372Y-17047984D01*
X4098753Y-17228936D02*
X4108277Y-17238460D01*
X4108277Y-17238460D02*
X4098753Y-17247984D01*
X4098753Y-17247984D02*
X4089229Y-17238460D01*
X4089229Y-17238460D02*
X4098753Y-17228936D01*
X4098753Y-17228936D02*
X4098753Y-17247984D01*
X4222563Y-17133698D02*
X4203515Y-17124174D01*
X4203515Y-17124174D02*
X4193991Y-17114650D01*
X4193991Y-17114650D02*
X4184467Y-17095603D01*
X4184467Y-17095603D02*
X4184467Y-17086079D01*
X4184467Y-17086079D02*
X4193991Y-17067031D01*
X4193991Y-17067031D02*
X4203515Y-17057508D01*
X4203515Y-17057508D02*
X4222563Y-17047984D01*
X4222563Y-17047984D02*
X4260658Y-17047984D01*
X4260658Y-17047984D02*
X4279705Y-17057508D01*
X4279705Y-17057508D02*
X4289229Y-17067031D01*
X4289229Y-17067031D02*
X4298753Y-17086079D01*
X4298753Y-17086079D02*
X4298753Y-17095603D01*
X4298753Y-17095603D02*
X4289229Y-17114650D01*
X4289229Y-17114650D02*
X4279705Y-17124174D01*
X4279705Y-17124174D02*
X4260658Y-17133698D01*
X4260658Y-17133698D02*
X4222563Y-17133698D01*
X4222563Y-17133698D02*
X4203515Y-17143222D01*
X4203515Y-17143222D02*
X4193991Y-17152746D01*
X4193991Y-17152746D02*
X4184467Y-17171793D01*
X4184467Y-17171793D02*
X4184467Y-17209889D01*
X4184467Y-17209889D02*
X4193991Y-17228936D01*
X4193991Y-17228936D02*
X4203515Y-17238460D01*
X4203515Y-17238460D02*
X4222563Y-17247984D01*
X4222563Y-17247984D02*
X4260658Y-17247984D01*
X4260658Y-17247984D02*
X4279705Y-17238460D01*
X4279705Y-17238460D02*
X4289229Y-17228936D01*
X4289229Y-17228936D02*
X4298753Y-17209889D01*
X4298753Y-17209889D02*
X4298753Y-17171793D01*
X4298753Y-17171793D02*
X4289229Y-17152746D01*
X4289229Y-17152746D02*
X4279705Y-17143222D01*
X4279705Y-17143222D02*
X4260658Y-17133698D01*
X4422563Y-17047984D02*
X4441610Y-17047984D01*
X4441610Y-17047984D02*
X4460658Y-17057508D01*
X4460658Y-17057508D02*
X4470182Y-17067031D01*
X4470182Y-17067031D02*
X4479705Y-17086079D01*
X4479705Y-17086079D02*
X4489229Y-17124174D01*
X4489229Y-17124174D02*
X4489229Y-17171793D01*
X4489229Y-17171793D02*
X4479705Y-17209889D01*
X4479705Y-17209889D02*
X4470182Y-17228936D01*
X4470182Y-17228936D02*
X4460658Y-17238460D01*
X4460658Y-17238460D02*
X4441610Y-17247984D01*
X4441610Y-17247984D02*
X4422563Y-17247984D01*
X4422563Y-17247984D02*
X4403515Y-17238460D01*
X4403515Y-17238460D02*
X4393991Y-17228936D01*
X4393991Y-17228936D02*
X4384467Y-17209889D01*
X4384467Y-17209889D02*
X4374944Y-17171793D01*
X4374944Y-17171793D02*
X4374944Y-17124174D01*
X4374944Y-17124174D02*
X4384467Y-17086079D01*
X4384467Y-17086079D02*
X4393991Y-17067031D01*
X4393991Y-17067031D02*
X4403515Y-17057508D01*
X4403515Y-17057508D02*
X4422563Y-17047984D01*
X4613039Y-17047984D02*
X4632086Y-17047984D01*
X4632086Y-17047984D02*
X4651134Y-17057508D01*
X4651134Y-17057508D02*
X4660658Y-17067031D01*
X4660658Y-17067031D02*
X4670182Y-17086079D01*
X4670182Y-17086079D02*
X4679705Y-17124174D01*
X4679705Y-17124174D02*
X4679705Y-17171793D01*
X4679705Y-17171793D02*
X4670182Y-17209889D01*
X4670182Y-17209889D02*
X4660658Y-17228936D01*
X4660658Y-17228936D02*
X4651134Y-17238460D01*
X4651134Y-17238460D02*
X4632086Y-17247984D01*
X4632086Y-17247984D02*
X4613039Y-17247984D01*
X4613039Y-17247984D02*
X4593991Y-17238460D01*
X4593991Y-17238460D02*
X4584467Y-17228936D01*
X4584467Y-17228936D02*
X4574944Y-17209889D01*
X4574944Y-17209889D02*
X4565420Y-17171793D01*
X4565420Y-17171793D02*
X4565420Y-17124174D01*
X4565420Y-17124174D02*
X4574944Y-17086079D01*
X4574944Y-17086079D02*
X4584467Y-17067031D01*
X4584467Y-17067031D02*
X4593991Y-17057508D01*
X4593991Y-17057508D02*
X4613039Y-17047984D01*
X4765420Y-17247984D02*
X4765420Y-17114650D01*
X4765420Y-17133698D02*
X4774944Y-17124174D01*
X4774944Y-17124174D02*
X4793991Y-17114650D01*
X4793991Y-17114650D02*
X4822563Y-17114650D01*
X4822563Y-17114650D02*
X4841610Y-17124174D01*
X4841610Y-17124174D02*
X4851134Y-17143222D01*
X4851134Y-17143222D02*
X4851134Y-17247984D01*
X4851134Y-17143222D02*
X4860658Y-17124174D01*
X4860658Y-17124174D02*
X4879705Y-17114650D01*
X4879705Y-17114650D02*
X4908277Y-17114650D01*
X4908277Y-17114650D02*
X4927325Y-17124174D01*
X4927325Y-17124174D02*
X4936848Y-17143222D01*
X4936848Y-17143222D02*
X4936848Y-17247984D01*
X5032086Y-17247984D02*
X5032086Y-17114650D01*
X5032086Y-17133698D02*
X5041610Y-17124174D01*
X5041610Y-17124174D02*
X5060658Y-17114650D01*
X5060658Y-17114650D02*
X5089229Y-17114650D01*
X5089229Y-17114650D02*
X5108277Y-17124174D01*
X5108277Y-17124174D02*
X5117801Y-17143222D01*
X5117801Y-17143222D02*
X5117801Y-17247984D01*
X5117801Y-17143222D02*
X5127325Y-17124174D01*
X5127325Y-17124174D02*
X5146372Y-17114650D01*
X5146372Y-17114650D02*
X5174944Y-17114650D01*
X5174944Y-17114650D02*
X5193991Y-17124174D01*
X5193991Y-17124174D02*
X5203515Y-17143222D01*
X5203515Y-17143222D02*
X5203515Y-17247984D01*
X5593991Y-17038460D02*
X5422563Y-17295603D01*
X5851134Y-17047984D02*
X5870182Y-17047984D01*
X5870182Y-17047984D02*
X5889229Y-17057508D01*
X5889229Y-17057508D02*
X5898753Y-17067031D01*
X5898753Y-17067031D02*
X5908277Y-17086079D01*
X5908277Y-17086079D02*
X5917801Y-17124174D01*
X5917801Y-17124174D02*
X5917801Y-17171793D01*
X5917801Y-17171793D02*
X5908277Y-17209889D01*
X5908277Y-17209889D02*
X5898753Y-17228936D01*
X5898753Y-17228936D02*
X5889229Y-17238460D01*
X5889229Y-17238460D02*
X5870182Y-17247984D01*
X5870182Y-17247984D02*
X5851134Y-17247984D01*
X5851134Y-17247984D02*
X5832086Y-17238460D01*
X5832086Y-17238460D02*
X5822563Y-17228936D01*
X5822563Y-17228936D02*
X5813039Y-17209889D01*
X5813039Y-17209889D02*
X5803515Y-17171793D01*
X5803515Y-17171793D02*
X5803515Y-17124174D01*
X5803515Y-17124174D02*
X5813039Y-17086079D01*
X5813039Y-17086079D02*
X5822563Y-17067031D01*
X5822563Y-17067031D02*
X5832086Y-17057508D01*
X5832086Y-17057508D02*
X5851134Y-17047984D01*
X6003515Y-17228936D02*
X6013039Y-17238460D01*
X6013039Y-17238460D02*
X6003515Y-17247984D01*
X6003515Y-17247984D02*
X5993991Y-17238460D01*
X5993991Y-17238460D02*
X6003515Y-17228936D01*
X6003515Y-17228936D02*
X6003515Y-17247984D01*
X6136848Y-17047984D02*
X6155896Y-17047984D01*
X6155896Y-17047984D02*
X6174944Y-17057508D01*
X6174944Y-17057508D02*
X6184467Y-17067031D01*
X6184467Y-17067031D02*
X6193991Y-17086079D01*
X6193991Y-17086079D02*
X6203515Y-17124174D01*
X6203515Y-17124174D02*
X6203515Y-17171793D01*
X6203515Y-17171793D02*
X6193991Y-17209889D01*
X6193991Y-17209889D02*
X6184467Y-17228936D01*
X6184467Y-17228936D02*
X6174944Y-17238460D01*
X6174944Y-17238460D02*
X6155896Y-17247984D01*
X6155896Y-17247984D02*
X6136848Y-17247984D01*
X6136848Y-17247984D02*
X6117801Y-17238460D01*
X6117801Y-17238460D02*
X6108277Y-17228936D01*
X6108277Y-17228936D02*
X6098753Y-17209889D01*
X6098753Y-17209889D02*
X6089229Y-17171793D01*
X6089229Y-17171793D02*
X6089229Y-17124174D01*
X6089229Y-17124174D02*
X6098753Y-17086079D01*
X6098753Y-17086079D02*
X6108277Y-17067031D01*
X6108277Y-17067031D02*
X6117801Y-17057508D01*
X6117801Y-17057508D02*
X6136848Y-17047984D01*
X6270182Y-17047984D02*
X6393991Y-17047984D01*
X6393991Y-17047984D02*
X6327325Y-17124174D01*
X6327325Y-17124174D02*
X6355896Y-17124174D01*
X6355896Y-17124174D02*
X6374944Y-17133698D01*
X6374944Y-17133698D02*
X6384467Y-17143222D01*
X6384467Y-17143222D02*
X6393991Y-17162270D01*
X6393991Y-17162270D02*
X6393991Y-17209889D01*
X6393991Y-17209889D02*
X6384467Y-17228936D01*
X6384467Y-17228936D02*
X6374944Y-17238460D01*
X6374944Y-17238460D02*
X6355896Y-17247984D01*
X6355896Y-17247984D02*
X6298753Y-17247984D01*
X6298753Y-17247984D02*
X6279706Y-17238460D01*
X6279706Y-17238460D02*
X6270182Y-17228936D01*
X6584467Y-17247984D02*
X6470182Y-17247984D01*
X6527325Y-17247984D02*
X6527325Y-17047984D01*
X6527325Y-17047984D02*
X6508277Y-17076555D01*
X6508277Y-17076555D02*
X6489229Y-17095603D01*
X6489229Y-17095603D02*
X6470182Y-17105127D01*
X6765420Y-17047984D02*
X6670182Y-17047984D01*
X6670182Y-17047984D02*
X6660658Y-17143222D01*
X6660658Y-17143222D02*
X6670182Y-17133698D01*
X6670182Y-17133698D02*
X6689229Y-17124174D01*
X6689229Y-17124174D02*
X6736848Y-17124174D01*
X6736848Y-17124174D02*
X6755896Y-17133698D01*
X6755896Y-17133698D02*
X6765420Y-17143222D01*
X6765420Y-17143222D02*
X6774944Y-17162270D01*
X6774944Y-17162270D02*
X6774944Y-17209889D01*
X6774944Y-17209889D02*
X6765420Y-17228936D01*
X6765420Y-17228936D02*
X6755896Y-17238460D01*
X6755896Y-17238460D02*
X6736848Y-17247984D01*
X6736848Y-17247984D02*
X6689229Y-17247984D01*
X6689229Y-17247984D02*
X6670182Y-17238460D01*
X6670182Y-17238460D02*
X6660658Y-17228936D01*
X6851134Y-17047984D02*
X6851134Y-17086079D01*
X6927325Y-17047984D02*
X6927325Y-17086079D01*
X7222563Y-17324174D02*
X7213039Y-17314650D01*
X7213039Y-17314650D02*
X7193991Y-17286079D01*
X7193991Y-17286079D02*
X7184468Y-17267031D01*
X7184468Y-17267031D02*
X7174944Y-17238460D01*
X7174944Y-17238460D02*
X7165420Y-17190841D01*
X7165420Y-17190841D02*
X7165420Y-17152746D01*
X7165420Y-17152746D02*
X7174944Y-17105127D01*
X7174944Y-17105127D02*
X7184468Y-17076555D01*
X7184468Y-17076555D02*
X7193991Y-17057508D01*
X7193991Y-17057508D02*
X7213039Y-17028936D01*
X7213039Y-17028936D02*
X7222563Y-17019412D01*
X7403515Y-17247984D02*
X7289229Y-17247984D01*
X7346372Y-17247984D02*
X7346372Y-17047984D01*
X7346372Y-17047984D02*
X7327325Y-17076555D01*
X7327325Y-17076555D02*
X7308277Y-17095603D01*
X7308277Y-17095603D02*
X7289229Y-17105127D01*
X7574944Y-17047984D02*
X7536848Y-17047984D01*
X7536848Y-17047984D02*
X7517801Y-17057508D01*
X7517801Y-17057508D02*
X7508277Y-17067031D01*
X7508277Y-17067031D02*
X7489229Y-17095603D01*
X7489229Y-17095603D02*
X7479706Y-17133698D01*
X7479706Y-17133698D02*
X7479706Y-17209889D01*
X7479706Y-17209889D02*
X7489229Y-17228936D01*
X7489229Y-17228936D02*
X7498753Y-17238460D01*
X7498753Y-17238460D02*
X7517801Y-17247984D01*
X7517801Y-17247984D02*
X7555896Y-17247984D01*
X7555896Y-17247984D02*
X7574944Y-17238460D01*
X7574944Y-17238460D02*
X7584468Y-17228936D01*
X7584468Y-17228936D02*
X7593991Y-17209889D01*
X7593991Y-17209889D02*
X7593991Y-17162270D01*
X7593991Y-17162270D02*
X7584468Y-17143222D01*
X7584468Y-17143222D02*
X7574944Y-17133698D01*
X7574944Y-17133698D02*
X7555896Y-17124174D01*
X7555896Y-17124174D02*
X7517801Y-17124174D01*
X7517801Y-17124174D02*
X7498753Y-17133698D01*
X7498753Y-17133698D02*
X7489229Y-17143222D01*
X7489229Y-17143222D02*
X7479706Y-17162270D01*
X7832087Y-17247984D02*
X7832087Y-17047984D01*
X7917801Y-17247984D02*
X7917801Y-17143222D01*
X7917801Y-17143222D02*
X7908277Y-17124174D01*
X7908277Y-17124174D02*
X7889230Y-17114650D01*
X7889230Y-17114650D02*
X7860658Y-17114650D01*
X7860658Y-17114650D02*
X7841610Y-17124174D01*
X7841610Y-17124174D02*
X7832087Y-17133698D01*
X8041610Y-17247984D02*
X8022563Y-17238460D01*
X8022563Y-17238460D02*
X8013039Y-17228936D01*
X8013039Y-17228936D02*
X8003515Y-17209889D01*
X8003515Y-17209889D02*
X8003515Y-17152746D01*
X8003515Y-17152746D02*
X8013039Y-17133698D01*
X8013039Y-17133698D02*
X8022563Y-17124174D01*
X8022563Y-17124174D02*
X8041610Y-17114650D01*
X8041610Y-17114650D02*
X8070182Y-17114650D01*
X8070182Y-17114650D02*
X8089230Y-17124174D01*
X8089230Y-17124174D02*
X8098753Y-17133698D01*
X8098753Y-17133698D02*
X8108277Y-17152746D01*
X8108277Y-17152746D02*
X8108277Y-17209889D01*
X8108277Y-17209889D02*
X8098753Y-17228936D01*
X8098753Y-17228936D02*
X8089230Y-17238460D01*
X8089230Y-17238460D02*
X8070182Y-17247984D01*
X8070182Y-17247984D02*
X8041610Y-17247984D01*
X8222563Y-17247984D02*
X8203515Y-17238460D01*
X8203515Y-17238460D02*
X8193991Y-17219412D01*
X8193991Y-17219412D02*
X8193991Y-17047984D01*
X8374944Y-17238460D02*
X8355896Y-17247984D01*
X8355896Y-17247984D02*
X8317801Y-17247984D01*
X8317801Y-17247984D02*
X8298753Y-17238460D01*
X8298753Y-17238460D02*
X8289230Y-17219412D01*
X8289230Y-17219412D02*
X8289230Y-17143222D01*
X8289230Y-17143222D02*
X8298753Y-17124174D01*
X8298753Y-17124174D02*
X8317801Y-17114650D01*
X8317801Y-17114650D02*
X8355896Y-17114650D01*
X8355896Y-17114650D02*
X8374944Y-17124174D01*
X8374944Y-17124174D02*
X8384468Y-17143222D01*
X8384468Y-17143222D02*
X8384468Y-17162270D01*
X8384468Y-17162270D02*
X8289230Y-17181317D01*
X8460658Y-17238460D02*
X8479706Y-17247984D01*
X8479706Y-17247984D02*
X8517801Y-17247984D01*
X8517801Y-17247984D02*
X8536849Y-17238460D01*
X8536849Y-17238460D02*
X8546373Y-17219412D01*
X8546373Y-17219412D02*
X8546373Y-17209889D01*
X8546373Y-17209889D02*
X8536849Y-17190841D01*
X8536849Y-17190841D02*
X8517801Y-17181317D01*
X8517801Y-17181317D02*
X8489230Y-17181317D01*
X8489230Y-17181317D02*
X8470182Y-17171793D01*
X8470182Y-17171793D02*
X8460658Y-17152746D01*
X8460658Y-17152746D02*
X8460658Y-17143222D01*
X8460658Y-17143222D02*
X8470182Y-17124174D01*
X8470182Y-17124174D02*
X8489230Y-17114650D01*
X8489230Y-17114650D02*
X8517801Y-17114650D01*
X8517801Y-17114650D02*
X8536849Y-17124174D01*
X8613039Y-17324174D02*
X8622563Y-17314650D01*
X8622563Y-17314650D02*
X8641611Y-17286079D01*
X8641611Y-17286079D02*
X8651134Y-17267031D01*
X8651134Y-17267031D02*
X8660658Y-17238460D01*
X8660658Y-17238460D02*
X8670182Y-17190841D01*
X8670182Y-17190841D02*
X8670182Y-17152746D01*
X8670182Y-17152746D02*
X8660658Y-17105127D01*
X8660658Y-17105127D02*
X8651134Y-17076555D01*
X8651134Y-17076555D02*
X8641611Y-17057508D01*
X8641611Y-17057508D02*
X8622563Y-17028936D01*
X8622563Y-17028936D02*
X8613039Y-17019412D01*
D12*
X3602500Y-17375500D02*
X3602500Y-17465500D01*
X3557500Y-17420500D02*
X3647500Y-17420500D01*
D11*
X3946372Y-17311984D02*
X3965420Y-17311984D01*
X3965420Y-17311984D02*
X3984467Y-17321508D01*
X3984467Y-17321508D02*
X3993991Y-17331031D01*
X3993991Y-17331031D02*
X4003515Y-17350079D01*
X4003515Y-17350079D02*
X4013039Y-17388174D01*
X4013039Y-17388174D02*
X4013039Y-17435793D01*
X4013039Y-17435793D02*
X4003515Y-17473889D01*
X4003515Y-17473889D02*
X3993991Y-17492936D01*
X3993991Y-17492936D02*
X3984467Y-17502460D01*
X3984467Y-17502460D02*
X3965420Y-17511984D01*
X3965420Y-17511984D02*
X3946372Y-17511984D01*
X3946372Y-17511984D02*
X3927324Y-17502460D01*
X3927324Y-17502460D02*
X3917801Y-17492936D01*
X3917801Y-17492936D02*
X3908277Y-17473889D01*
X3908277Y-17473889D02*
X3898753Y-17435793D01*
X3898753Y-17435793D02*
X3898753Y-17388174D01*
X3898753Y-17388174D02*
X3908277Y-17350079D01*
X3908277Y-17350079D02*
X3917801Y-17331031D01*
X3917801Y-17331031D02*
X3927324Y-17321508D01*
X3927324Y-17321508D02*
X3946372Y-17311984D01*
X4098753Y-17492936D02*
X4108277Y-17502460D01*
X4108277Y-17502460D02*
X4098753Y-17511984D01*
X4098753Y-17511984D02*
X4089229Y-17502460D01*
X4089229Y-17502460D02*
X4098753Y-17492936D01*
X4098753Y-17492936D02*
X4098753Y-17511984D01*
X4203515Y-17511984D02*
X4241610Y-17511984D01*
X4241610Y-17511984D02*
X4260658Y-17502460D01*
X4260658Y-17502460D02*
X4270182Y-17492936D01*
X4270182Y-17492936D02*
X4289229Y-17464365D01*
X4289229Y-17464365D02*
X4298753Y-17426270D01*
X4298753Y-17426270D02*
X4298753Y-17350079D01*
X4298753Y-17350079D02*
X4289229Y-17331031D01*
X4289229Y-17331031D02*
X4279705Y-17321508D01*
X4279705Y-17321508D02*
X4260658Y-17311984D01*
X4260658Y-17311984D02*
X4222563Y-17311984D01*
X4222563Y-17311984D02*
X4203515Y-17321508D01*
X4203515Y-17321508D02*
X4193991Y-17331031D01*
X4193991Y-17331031D02*
X4184467Y-17350079D01*
X4184467Y-17350079D02*
X4184467Y-17397698D01*
X4184467Y-17397698D02*
X4193991Y-17416746D01*
X4193991Y-17416746D02*
X4203515Y-17426270D01*
X4203515Y-17426270D02*
X4222563Y-17435793D01*
X4222563Y-17435793D02*
X4260658Y-17435793D01*
X4260658Y-17435793D02*
X4279705Y-17426270D01*
X4279705Y-17426270D02*
X4289229Y-17416746D01*
X4289229Y-17416746D02*
X4298753Y-17397698D01*
X4422563Y-17311984D02*
X4441610Y-17311984D01*
X4441610Y-17311984D02*
X4460658Y-17321508D01*
X4460658Y-17321508D02*
X4470182Y-17331031D01*
X4470182Y-17331031D02*
X4479705Y-17350079D01*
X4479705Y-17350079D02*
X4489229Y-17388174D01*
X4489229Y-17388174D02*
X4489229Y-17435793D01*
X4489229Y-17435793D02*
X4479705Y-17473889D01*
X4479705Y-17473889D02*
X4470182Y-17492936D01*
X4470182Y-17492936D02*
X4460658Y-17502460D01*
X4460658Y-17502460D02*
X4441610Y-17511984D01*
X4441610Y-17511984D02*
X4422563Y-17511984D01*
X4422563Y-17511984D02*
X4403515Y-17502460D01*
X4403515Y-17502460D02*
X4393991Y-17492936D01*
X4393991Y-17492936D02*
X4384467Y-17473889D01*
X4384467Y-17473889D02*
X4374944Y-17435793D01*
X4374944Y-17435793D02*
X4374944Y-17388174D01*
X4374944Y-17388174D02*
X4384467Y-17350079D01*
X4384467Y-17350079D02*
X4393991Y-17331031D01*
X4393991Y-17331031D02*
X4403515Y-17321508D01*
X4403515Y-17321508D02*
X4422563Y-17311984D01*
X4613039Y-17311984D02*
X4632086Y-17311984D01*
X4632086Y-17311984D02*
X4651134Y-17321508D01*
X4651134Y-17321508D02*
X4660658Y-17331031D01*
X4660658Y-17331031D02*
X4670182Y-17350079D01*
X4670182Y-17350079D02*
X4679705Y-17388174D01*
X4679705Y-17388174D02*
X4679705Y-17435793D01*
X4679705Y-17435793D02*
X4670182Y-17473889D01*
X4670182Y-17473889D02*
X4660658Y-17492936D01*
X4660658Y-17492936D02*
X4651134Y-17502460D01*
X4651134Y-17502460D02*
X4632086Y-17511984D01*
X4632086Y-17511984D02*
X4613039Y-17511984D01*
X4613039Y-17511984D02*
X4593991Y-17502460D01*
X4593991Y-17502460D02*
X4584467Y-17492936D01*
X4584467Y-17492936D02*
X4574944Y-17473889D01*
X4574944Y-17473889D02*
X4565420Y-17435793D01*
X4565420Y-17435793D02*
X4565420Y-17388174D01*
X4565420Y-17388174D02*
X4574944Y-17350079D01*
X4574944Y-17350079D02*
X4584467Y-17331031D01*
X4584467Y-17331031D02*
X4593991Y-17321508D01*
X4593991Y-17321508D02*
X4613039Y-17311984D01*
X4765420Y-17511984D02*
X4765420Y-17378650D01*
X4765420Y-17397698D02*
X4774944Y-17388174D01*
X4774944Y-17388174D02*
X4793991Y-17378650D01*
X4793991Y-17378650D02*
X4822563Y-17378650D01*
X4822563Y-17378650D02*
X4841610Y-17388174D01*
X4841610Y-17388174D02*
X4851134Y-17407222D01*
X4851134Y-17407222D02*
X4851134Y-17511984D01*
X4851134Y-17407222D02*
X4860658Y-17388174D01*
X4860658Y-17388174D02*
X4879705Y-17378650D01*
X4879705Y-17378650D02*
X4908277Y-17378650D01*
X4908277Y-17378650D02*
X4927325Y-17388174D01*
X4927325Y-17388174D02*
X4936848Y-17407222D01*
X4936848Y-17407222D02*
X4936848Y-17511984D01*
X5032086Y-17511984D02*
X5032086Y-17378650D01*
X5032086Y-17397698D02*
X5041610Y-17388174D01*
X5041610Y-17388174D02*
X5060658Y-17378650D01*
X5060658Y-17378650D02*
X5089229Y-17378650D01*
X5089229Y-17378650D02*
X5108277Y-17388174D01*
X5108277Y-17388174D02*
X5117801Y-17407222D01*
X5117801Y-17407222D02*
X5117801Y-17511984D01*
X5117801Y-17407222D02*
X5127325Y-17388174D01*
X5127325Y-17388174D02*
X5146372Y-17378650D01*
X5146372Y-17378650D02*
X5174944Y-17378650D01*
X5174944Y-17378650D02*
X5193991Y-17388174D01*
X5193991Y-17388174D02*
X5203515Y-17407222D01*
X5203515Y-17407222D02*
X5203515Y-17511984D01*
X5593991Y-17302460D02*
X5422563Y-17559603D01*
X5851134Y-17311984D02*
X5870182Y-17311984D01*
X5870182Y-17311984D02*
X5889229Y-17321508D01*
X5889229Y-17321508D02*
X5898753Y-17331031D01*
X5898753Y-17331031D02*
X5908277Y-17350079D01*
X5908277Y-17350079D02*
X5917801Y-17388174D01*
X5917801Y-17388174D02*
X5917801Y-17435793D01*
X5917801Y-17435793D02*
X5908277Y-17473889D01*
X5908277Y-17473889D02*
X5898753Y-17492936D01*
X5898753Y-17492936D02*
X5889229Y-17502460D01*
X5889229Y-17502460D02*
X5870182Y-17511984D01*
X5870182Y-17511984D02*
X5851134Y-17511984D01*
X5851134Y-17511984D02*
X5832086Y-17502460D01*
X5832086Y-17502460D02*
X5822563Y-17492936D01*
X5822563Y-17492936D02*
X5813039Y-17473889D01*
X5813039Y-17473889D02*
X5803515Y-17435793D01*
X5803515Y-17435793D02*
X5803515Y-17388174D01*
X5803515Y-17388174D02*
X5813039Y-17350079D01*
X5813039Y-17350079D02*
X5822563Y-17331031D01*
X5822563Y-17331031D02*
X5832086Y-17321508D01*
X5832086Y-17321508D02*
X5851134Y-17311984D01*
X6003515Y-17492936D02*
X6013039Y-17502460D01*
X6013039Y-17502460D02*
X6003515Y-17511984D01*
X6003515Y-17511984D02*
X5993991Y-17502460D01*
X5993991Y-17502460D02*
X6003515Y-17492936D01*
X6003515Y-17492936D02*
X6003515Y-17511984D01*
X6136848Y-17311984D02*
X6155896Y-17311984D01*
X6155896Y-17311984D02*
X6174944Y-17321508D01*
X6174944Y-17321508D02*
X6184467Y-17331031D01*
X6184467Y-17331031D02*
X6193991Y-17350079D01*
X6193991Y-17350079D02*
X6203515Y-17388174D01*
X6203515Y-17388174D02*
X6203515Y-17435793D01*
X6203515Y-17435793D02*
X6193991Y-17473889D01*
X6193991Y-17473889D02*
X6184467Y-17492936D01*
X6184467Y-17492936D02*
X6174944Y-17502460D01*
X6174944Y-17502460D02*
X6155896Y-17511984D01*
X6155896Y-17511984D02*
X6136848Y-17511984D01*
X6136848Y-17511984D02*
X6117801Y-17502460D01*
X6117801Y-17502460D02*
X6108277Y-17492936D01*
X6108277Y-17492936D02*
X6098753Y-17473889D01*
X6098753Y-17473889D02*
X6089229Y-17435793D01*
X6089229Y-17435793D02*
X6089229Y-17388174D01*
X6089229Y-17388174D02*
X6098753Y-17350079D01*
X6098753Y-17350079D02*
X6108277Y-17331031D01*
X6108277Y-17331031D02*
X6117801Y-17321508D01*
X6117801Y-17321508D02*
X6136848Y-17311984D01*
X6270182Y-17311984D02*
X6393991Y-17311984D01*
X6393991Y-17311984D02*
X6327325Y-17388174D01*
X6327325Y-17388174D02*
X6355896Y-17388174D01*
X6355896Y-17388174D02*
X6374944Y-17397698D01*
X6374944Y-17397698D02*
X6384467Y-17407222D01*
X6384467Y-17407222D02*
X6393991Y-17426270D01*
X6393991Y-17426270D02*
X6393991Y-17473889D01*
X6393991Y-17473889D02*
X6384467Y-17492936D01*
X6384467Y-17492936D02*
X6374944Y-17502460D01*
X6374944Y-17502460D02*
X6355896Y-17511984D01*
X6355896Y-17511984D02*
X6298753Y-17511984D01*
X6298753Y-17511984D02*
X6279706Y-17502460D01*
X6279706Y-17502460D02*
X6270182Y-17492936D01*
X6574944Y-17311984D02*
X6479706Y-17311984D01*
X6479706Y-17311984D02*
X6470182Y-17407222D01*
X6470182Y-17407222D02*
X6479706Y-17397698D01*
X6479706Y-17397698D02*
X6498753Y-17388174D01*
X6498753Y-17388174D02*
X6546372Y-17388174D01*
X6546372Y-17388174D02*
X6565420Y-17397698D01*
X6565420Y-17397698D02*
X6574944Y-17407222D01*
X6574944Y-17407222D02*
X6584467Y-17426270D01*
X6584467Y-17426270D02*
X6584467Y-17473889D01*
X6584467Y-17473889D02*
X6574944Y-17492936D01*
X6574944Y-17492936D02*
X6565420Y-17502460D01*
X6565420Y-17502460D02*
X6546372Y-17511984D01*
X6546372Y-17511984D02*
X6498753Y-17511984D01*
X6498753Y-17511984D02*
X6479706Y-17502460D01*
X6479706Y-17502460D02*
X6470182Y-17492936D01*
X6755896Y-17378650D02*
X6755896Y-17511984D01*
X6708277Y-17302460D02*
X6660658Y-17445317D01*
X6660658Y-17445317D02*
X6784467Y-17445317D01*
X6851134Y-17311984D02*
X6851134Y-17350079D01*
X6927325Y-17311984D02*
X6927325Y-17350079D01*
X7222563Y-17588174D02*
X7213039Y-17578650D01*
X7213039Y-17578650D02*
X7193991Y-17550079D01*
X7193991Y-17550079D02*
X7184468Y-17531031D01*
X7184468Y-17531031D02*
X7174944Y-17502460D01*
X7174944Y-17502460D02*
X7165420Y-17454841D01*
X7165420Y-17454841D02*
X7165420Y-17416746D01*
X7165420Y-17416746D02*
X7174944Y-17369127D01*
X7174944Y-17369127D02*
X7184468Y-17340555D01*
X7184468Y-17340555D02*
X7193991Y-17321508D01*
X7193991Y-17321508D02*
X7213039Y-17292936D01*
X7213039Y-17292936D02*
X7222563Y-17283412D01*
X7403515Y-17511984D02*
X7289229Y-17511984D01*
X7346372Y-17511984D02*
X7346372Y-17311984D01*
X7346372Y-17311984D02*
X7327325Y-17340555D01*
X7327325Y-17340555D02*
X7308277Y-17359603D01*
X7308277Y-17359603D02*
X7289229Y-17369127D01*
X7527325Y-17311984D02*
X7546372Y-17311984D01*
X7546372Y-17311984D02*
X7565420Y-17321508D01*
X7565420Y-17321508D02*
X7574944Y-17331031D01*
X7574944Y-17331031D02*
X7584468Y-17350079D01*
X7584468Y-17350079D02*
X7593991Y-17388174D01*
X7593991Y-17388174D02*
X7593991Y-17435793D01*
X7593991Y-17435793D02*
X7584468Y-17473889D01*
X7584468Y-17473889D02*
X7574944Y-17492936D01*
X7574944Y-17492936D02*
X7565420Y-17502460D01*
X7565420Y-17502460D02*
X7546372Y-17511984D01*
X7546372Y-17511984D02*
X7527325Y-17511984D01*
X7527325Y-17511984D02*
X7508277Y-17502460D01*
X7508277Y-17502460D02*
X7498753Y-17492936D01*
X7498753Y-17492936D02*
X7489229Y-17473889D01*
X7489229Y-17473889D02*
X7479706Y-17435793D01*
X7479706Y-17435793D02*
X7479706Y-17388174D01*
X7479706Y-17388174D02*
X7489229Y-17350079D01*
X7489229Y-17350079D02*
X7498753Y-17331031D01*
X7498753Y-17331031D02*
X7508277Y-17321508D01*
X7508277Y-17321508D02*
X7527325Y-17311984D01*
X7832087Y-17511984D02*
X7832087Y-17311984D01*
X7917801Y-17511984D02*
X7917801Y-17407222D01*
X7917801Y-17407222D02*
X7908277Y-17388174D01*
X7908277Y-17388174D02*
X7889230Y-17378650D01*
X7889230Y-17378650D02*
X7860658Y-17378650D01*
X7860658Y-17378650D02*
X7841610Y-17388174D01*
X7841610Y-17388174D02*
X7832087Y-17397698D01*
X8041610Y-17511984D02*
X8022563Y-17502460D01*
X8022563Y-17502460D02*
X8013039Y-17492936D01*
X8013039Y-17492936D02*
X8003515Y-17473889D01*
X8003515Y-17473889D02*
X8003515Y-17416746D01*
X8003515Y-17416746D02*
X8013039Y-17397698D01*
X8013039Y-17397698D02*
X8022563Y-17388174D01*
X8022563Y-17388174D02*
X8041610Y-17378650D01*
X8041610Y-17378650D02*
X8070182Y-17378650D01*
X8070182Y-17378650D02*
X8089230Y-17388174D01*
X8089230Y-17388174D02*
X8098753Y-17397698D01*
X8098753Y-17397698D02*
X8108277Y-17416746D01*
X8108277Y-17416746D02*
X8108277Y-17473889D01*
X8108277Y-17473889D02*
X8098753Y-17492936D01*
X8098753Y-17492936D02*
X8089230Y-17502460D01*
X8089230Y-17502460D02*
X8070182Y-17511984D01*
X8070182Y-17511984D02*
X8041610Y-17511984D01*
X8222563Y-17511984D02*
X8203515Y-17502460D01*
X8203515Y-17502460D02*
X8193991Y-17483412D01*
X8193991Y-17483412D02*
X8193991Y-17311984D01*
X8374944Y-17502460D02*
X8355896Y-17511984D01*
X8355896Y-17511984D02*
X8317801Y-17511984D01*
X8317801Y-17511984D02*
X8298753Y-17502460D01*
X8298753Y-17502460D02*
X8289230Y-17483412D01*
X8289230Y-17483412D02*
X8289230Y-17407222D01*
X8289230Y-17407222D02*
X8298753Y-17388174D01*
X8298753Y-17388174D02*
X8317801Y-17378650D01*
X8317801Y-17378650D02*
X8355896Y-17378650D01*
X8355896Y-17378650D02*
X8374944Y-17388174D01*
X8374944Y-17388174D02*
X8384468Y-17407222D01*
X8384468Y-17407222D02*
X8384468Y-17426270D01*
X8384468Y-17426270D02*
X8289230Y-17445317D01*
X8460658Y-17502460D02*
X8479706Y-17511984D01*
X8479706Y-17511984D02*
X8517801Y-17511984D01*
X8517801Y-17511984D02*
X8536849Y-17502460D01*
X8536849Y-17502460D02*
X8546373Y-17483412D01*
X8546373Y-17483412D02*
X8546373Y-17473889D01*
X8546373Y-17473889D02*
X8536849Y-17454841D01*
X8536849Y-17454841D02*
X8517801Y-17445317D01*
X8517801Y-17445317D02*
X8489230Y-17445317D01*
X8489230Y-17445317D02*
X8470182Y-17435793D01*
X8470182Y-17435793D02*
X8460658Y-17416746D01*
X8460658Y-17416746D02*
X8460658Y-17407222D01*
X8460658Y-17407222D02*
X8470182Y-17388174D01*
X8470182Y-17388174D02*
X8489230Y-17378650D01*
X8489230Y-17378650D02*
X8517801Y-17378650D01*
X8517801Y-17378650D02*
X8536849Y-17388174D01*
X8613039Y-17588174D02*
X8622563Y-17578650D01*
X8622563Y-17578650D02*
X8641611Y-17550079D01*
X8641611Y-17550079D02*
X8651134Y-17531031D01*
X8651134Y-17531031D02*
X8660658Y-17502460D01*
X8660658Y-17502460D02*
X8670182Y-17454841D01*
X8670182Y-17454841D02*
X8670182Y-17416746D01*
X8670182Y-17416746D02*
X8660658Y-17369127D01*
X8660658Y-17369127D02*
X8651134Y-17340555D01*
X8651134Y-17340555D02*
X8641611Y-17321508D01*
X8641611Y-17321508D02*
X8622563Y-17292936D01*
X8622563Y-17292936D02*
X8613039Y-17283412D01*
D12*
X3632856Y-17719856D02*
X3632856Y-17649144D01*
X3562144Y-17649144D01*
X3562144Y-17719856D01*
X3632856Y-17719856D01*
D11*
X4013039Y-17775984D02*
X3898753Y-17775984D01*
X3955896Y-17775984D02*
X3955896Y-17575984D01*
X3955896Y-17575984D02*
X3936848Y-17604555D01*
X3936848Y-17604555D02*
X3917801Y-17623603D01*
X3917801Y-17623603D02*
X3898753Y-17633127D01*
X4098753Y-17756936D02*
X4108277Y-17766460D01*
X4108277Y-17766460D02*
X4098753Y-17775984D01*
X4098753Y-17775984D02*
X4089229Y-17766460D01*
X4089229Y-17766460D02*
X4098753Y-17756936D01*
X4098753Y-17756936D02*
X4098753Y-17775984D01*
X4232086Y-17575984D02*
X4251134Y-17575984D01*
X4251134Y-17575984D02*
X4270182Y-17585508D01*
X4270182Y-17585508D02*
X4279705Y-17595031D01*
X4279705Y-17595031D02*
X4289229Y-17614079D01*
X4289229Y-17614079D02*
X4298753Y-17652174D01*
X4298753Y-17652174D02*
X4298753Y-17699793D01*
X4298753Y-17699793D02*
X4289229Y-17737889D01*
X4289229Y-17737889D02*
X4279705Y-17756936D01*
X4279705Y-17756936D02*
X4270182Y-17766460D01*
X4270182Y-17766460D02*
X4251134Y-17775984D01*
X4251134Y-17775984D02*
X4232086Y-17775984D01*
X4232086Y-17775984D02*
X4213039Y-17766460D01*
X4213039Y-17766460D02*
X4203515Y-17756936D01*
X4203515Y-17756936D02*
X4193991Y-17737889D01*
X4193991Y-17737889D02*
X4184467Y-17699793D01*
X4184467Y-17699793D02*
X4184467Y-17652174D01*
X4184467Y-17652174D02*
X4193991Y-17614079D01*
X4193991Y-17614079D02*
X4203515Y-17595031D01*
X4203515Y-17595031D02*
X4213039Y-17585508D01*
X4213039Y-17585508D02*
X4232086Y-17575984D01*
X4422563Y-17575984D02*
X4441610Y-17575984D01*
X4441610Y-17575984D02*
X4460658Y-17585508D01*
X4460658Y-17585508D02*
X4470182Y-17595031D01*
X4470182Y-17595031D02*
X4479705Y-17614079D01*
X4479705Y-17614079D02*
X4489229Y-17652174D01*
X4489229Y-17652174D02*
X4489229Y-17699793D01*
X4489229Y-17699793D02*
X4479705Y-17737889D01*
X4479705Y-17737889D02*
X4470182Y-17756936D01*
X4470182Y-17756936D02*
X4460658Y-17766460D01*
X4460658Y-17766460D02*
X4441610Y-17775984D01*
X4441610Y-17775984D02*
X4422563Y-17775984D01*
X4422563Y-17775984D02*
X4403515Y-17766460D01*
X4403515Y-17766460D02*
X4393991Y-17756936D01*
X4393991Y-17756936D02*
X4384467Y-17737889D01*
X4384467Y-17737889D02*
X4374944Y-17699793D01*
X4374944Y-17699793D02*
X4374944Y-17652174D01*
X4374944Y-17652174D02*
X4384467Y-17614079D01*
X4384467Y-17614079D02*
X4393991Y-17595031D01*
X4393991Y-17595031D02*
X4403515Y-17585508D01*
X4403515Y-17585508D02*
X4422563Y-17575984D01*
X4613039Y-17575984D02*
X4632086Y-17575984D01*
X4632086Y-17575984D02*
X4651134Y-17585508D01*
X4651134Y-17585508D02*
X4660658Y-17595031D01*
X4660658Y-17595031D02*
X4670182Y-17614079D01*
X4670182Y-17614079D02*
X4679705Y-17652174D01*
X4679705Y-17652174D02*
X4679705Y-17699793D01*
X4679705Y-17699793D02*
X4670182Y-17737889D01*
X4670182Y-17737889D02*
X4660658Y-17756936D01*
X4660658Y-17756936D02*
X4651134Y-17766460D01*
X4651134Y-17766460D02*
X4632086Y-17775984D01*
X4632086Y-17775984D02*
X4613039Y-17775984D01*
X4613039Y-17775984D02*
X4593991Y-17766460D01*
X4593991Y-17766460D02*
X4584467Y-17756936D01*
X4584467Y-17756936D02*
X4574944Y-17737889D01*
X4574944Y-17737889D02*
X4565420Y-17699793D01*
X4565420Y-17699793D02*
X4565420Y-17652174D01*
X4565420Y-17652174D02*
X4574944Y-17614079D01*
X4574944Y-17614079D02*
X4584467Y-17595031D01*
X4584467Y-17595031D02*
X4593991Y-17585508D01*
X4593991Y-17585508D02*
X4613039Y-17575984D01*
X4765420Y-17775984D02*
X4765420Y-17642650D01*
X4765420Y-17661698D02*
X4774944Y-17652174D01*
X4774944Y-17652174D02*
X4793991Y-17642650D01*
X4793991Y-17642650D02*
X4822563Y-17642650D01*
X4822563Y-17642650D02*
X4841610Y-17652174D01*
X4841610Y-17652174D02*
X4851134Y-17671222D01*
X4851134Y-17671222D02*
X4851134Y-17775984D01*
X4851134Y-17671222D02*
X4860658Y-17652174D01*
X4860658Y-17652174D02*
X4879705Y-17642650D01*
X4879705Y-17642650D02*
X4908277Y-17642650D01*
X4908277Y-17642650D02*
X4927325Y-17652174D01*
X4927325Y-17652174D02*
X4936848Y-17671222D01*
X4936848Y-17671222D02*
X4936848Y-17775984D01*
X5032086Y-17775984D02*
X5032086Y-17642650D01*
X5032086Y-17661698D02*
X5041610Y-17652174D01*
X5041610Y-17652174D02*
X5060658Y-17642650D01*
X5060658Y-17642650D02*
X5089229Y-17642650D01*
X5089229Y-17642650D02*
X5108277Y-17652174D01*
X5108277Y-17652174D02*
X5117801Y-17671222D01*
X5117801Y-17671222D02*
X5117801Y-17775984D01*
X5117801Y-17671222D02*
X5127325Y-17652174D01*
X5127325Y-17652174D02*
X5146372Y-17642650D01*
X5146372Y-17642650D02*
X5174944Y-17642650D01*
X5174944Y-17642650D02*
X5193991Y-17652174D01*
X5193991Y-17652174D02*
X5203515Y-17671222D01*
X5203515Y-17671222D02*
X5203515Y-17775984D01*
X5593991Y-17566460D02*
X5422563Y-17823603D01*
X5851134Y-17575984D02*
X5870182Y-17575984D01*
X5870182Y-17575984D02*
X5889229Y-17585508D01*
X5889229Y-17585508D02*
X5898753Y-17595031D01*
X5898753Y-17595031D02*
X5908277Y-17614079D01*
X5908277Y-17614079D02*
X5917801Y-17652174D01*
X5917801Y-17652174D02*
X5917801Y-17699793D01*
X5917801Y-17699793D02*
X5908277Y-17737889D01*
X5908277Y-17737889D02*
X5898753Y-17756936D01*
X5898753Y-17756936D02*
X5889229Y-17766460D01*
X5889229Y-17766460D02*
X5870182Y-17775984D01*
X5870182Y-17775984D02*
X5851134Y-17775984D01*
X5851134Y-17775984D02*
X5832086Y-17766460D01*
X5832086Y-17766460D02*
X5822563Y-17756936D01*
X5822563Y-17756936D02*
X5813039Y-17737889D01*
X5813039Y-17737889D02*
X5803515Y-17699793D01*
X5803515Y-17699793D02*
X5803515Y-17652174D01*
X5803515Y-17652174D02*
X5813039Y-17614079D01*
X5813039Y-17614079D02*
X5822563Y-17595031D01*
X5822563Y-17595031D02*
X5832086Y-17585508D01*
X5832086Y-17585508D02*
X5851134Y-17575984D01*
X6003515Y-17756936D02*
X6013039Y-17766460D01*
X6013039Y-17766460D02*
X6003515Y-17775984D01*
X6003515Y-17775984D02*
X5993991Y-17766460D01*
X5993991Y-17766460D02*
X6003515Y-17756936D01*
X6003515Y-17756936D02*
X6003515Y-17775984D01*
X6136848Y-17575984D02*
X6155896Y-17575984D01*
X6155896Y-17575984D02*
X6174944Y-17585508D01*
X6174944Y-17585508D02*
X6184467Y-17595031D01*
X6184467Y-17595031D02*
X6193991Y-17614079D01*
X6193991Y-17614079D02*
X6203515Y-17652174D01*
X6203515Y-17652174D02*
X6203515Y-17699793D01*
X6203515Y-17699793D02*
X6193991Y-17737889D01*
X6193991Y-17737889D02*
X6184467Y-17756936D01*
X6184467Y-17756936D02*
X6174944Y-17766460D01*
X6174944Y-17766460D02*
X6155896Y-17775984D01*
X6155896Y-17775984D02*
X6136848Y-17775984D01*
X6136848Y-17775984D02*
X6117801Y-17766460D01*
X6117801Y-17766460D02*
X6108277Y-17756936D01*
X6108277Y-17756936D02*
X6098753Y-17737889D01*
X6098753Y-17737889D02*
X6089229Y-17699793D01*
X6089229Y-17699793D02*
X6089229Y-17652174D01*
X6089229Y-17652174D02*
X6098753Y-17614079D01*
X6098753Y-17614079D02*
X6108277Y-17595031D01*
X6108277Y-17595031D02*
X6117801Y-17585508D01*
X6117801Y-17585508D02*
X6136848Y-17575984D01*
X6270182Y-17575984D02*
X6393991Y-17575984D01*
X6393991Y-17575984D02*
X6327325Y-17652174D01*
X6327325Y-17652174D02*
X6355896Y-17652174D01*
X6355896Y-17652174D02*
X6374944Y-17661698D01*
X6374944Y-17661698D02*
X6384467Y-17671222D01*
X6384467Y-17671222D02*
X6393991Y-17690270D01*
X6393991Y-17690270D02*
X6393991Y-17737889D01*
X6393991Y-17737889D02*
X6384467Y-17756936D01*
X6384467Y-17756936D02*
X6374944Y-17766460D01*
X6374944Y-17766460D02*
X6355896Y-17775984D01*
X6355896Y-17775984D02*
X6298753Y-17775984D01*
X6298753Y-17775984D02*
X6279706Y-17766460D01*
X6279706Y-17766460D02*
X6270182Y-17756936D01*
X6489229Y-17775984D02*
X6527325Y-17775984D01*
X6527325Y-17775984D02*
X6546372Y-17766460D01*
X6546372Y-17766460D02*
X6555896Y-17756936D01*
X6555896Y-17756936D02*
X6574944Y-17728365D01*
X6574944Y-17728365D02*
X6584467Y-17690270D01*
X6584467Y-17690270D02*
X6584467Y-17614079D01*
X6584467Y-17614079D02*
X6574944Y-17595031D01*
X6574944Y-17595031D02*
X6565420Y-17585508D01*
X6565420Y-17585508D02*
X6546372Y-17575984D01*
X6546372Y-17575984D02*
X6508277Y-17575984D01*
X6508277Y-17575984D02*
X6489229Y-17585508D01*
X6489229Y-17585508D02*
X6479706Y-17595031D01*
X6479706Y-17595031D02*
X6470182Y-17614079D01*
X6470182Y-17614079D02*
X6470182Y-17661698D01*
X6470182Y-17661698D02*
X6479706Y-17680746D01*
X6479706Y-17680746D02*
X6489229Y-17690270D01*
X6489229Y-17690270D02*
X6508277Y-17699793D01*
X6508277Y-17699793D02*
X6546372Y-17699793D01*
X6546372Y-17699793D02*
X6565420Y-17690270D01*
X6565420Y-17690270D02*
X6574944Y-17680746D01*
X6574944Y-17680746D02*
X6584467Y-17661698D01*
X6755896Y-17642650D02*
X6755896Y-17775984D01*
X6708277Y-17566460D02*
X6660658Y-17709317D01*
X6660658Y-17709317D02*
X6784467Y-17709317D01*
X6851134Y-17575984D02*
X6851134Y-17614079D01*
X6927325Y-17575984D02*
X6927325Y-17614079D01*
X7222563Y-17852174D02*
X7213039Y-17842650D01*
X7213039Y-17842650D02*
X7193991Y-17814079D01*
X7193991Y-17814079D02*
X7184468Y-17795031D01*
X7184468Y-17795031D02*
X7174944Y-17766460D01*
X7174944Y-17766460D02*
X7165420Y-17718841D01*
X7165420Y-17718841D02*
X7165420Y-17680746D01*
X7165420Y-17680746D02*
X7174944Y-17633127D01*
X7174944Y-17633127D02*
X7184468Y-17604555D01*
X7184468Y-17604555D02*
X7193991Y-17585508D01*
X7193991Y-17585508D02*
X7213039Y-17556936D01*
X7213039Y-17556936D02*
X7222563Y-17547412D01*
X7393991Y-17575984D02*
X7298753Y-17575984D01*
X7298753Y-17575984D02*
X7289229Y-17671222D01*
X7289229Y-17671222D02*
X7298753Y-17661698D01*
X7298753Y-17661698D02*
X7317801Y-17652174D01*
X7317801Y-17652174D02*
X7365420Y-17652174D01*
X7365420Y-17652174D02*
X7384468Y-17661698D01*
X7384468Y-17661698D02*
X7393991Y-17671222D01*
X7393991Y-17671222D02*
X7403515Y-17690270D01*
X7403515Y-17690270D02*
X7403515Y-17737889D01*
X7403515Y-17737889D02*
X7393991Y-17756936D01*
X7393991Y-17756936D02*
X7384468Y-17766460D01*
X7384468Y-17766460D02*
X7365420Y-17775984D01*
X7365420Y-17775984D02*
X7317801Y-17775984D01*
X7317801Y-17775984D02*
X7298753Y-17766460D01*
X7298753Y-17766460D02*
X7289229Y-17756936D01*
X7517801Y-17661698D02*
X7498753Y-17652174D01*
X7498753Y-17652174D02*
X7489229Y-17642650D01*
X7489229Y-17642650D02*
X7479706Y-17623603D01*
X7479706Y-17623603D02*
X7479706Y-17614079D01*
X7479706Y-17614079D02*
X7489229Y-17595031D01*
X7489229Y-17595031D02*
X7498753Y-17585508D01*
X7498753Y-17585508D02*
X7517801Y-17575984D01*
X7517801Y-17575984D02*
X7555896Y-17575984D01*
X7555896Y-17575984D02*
X7574944Y-17585508D01*
X7574944Y-17585508D02*
X7584468Y-17595031D01*
X7584468Y-17595031D02*
X7593991Y-17614079D01*
X7593991Y-17614079D02*
X7593991Y-17623603D01*
X7593991Y-17623603D02*
X7584468Y-17642650D01*
X7584468Y-17642650D02*
X7574944Y-17652174D01*
X7574944Y-17652174D02*
X7555896Y-17661698D01*
X7555896Y-17661698D02*
X7517801Y-17661698D01*
X7517801Y-17661698D02*
X7498753Y-17671222D01*
X7498753Y-17671222D02*
X7489229Y-17680746D01*
X7489229Y-17680746D02*
X7479706Y-17699793D01*
X7479706Y-17699793D02*
X7479706Y-17737889D01*
X7479706Y-17737889D02*
X7489229Y-17756936D01*
X7489229Y-17756936D02*
X7498753Y-17766460D01*
X7498753Y-17766460D02*
X7517801Y-17775984D01*
X7517801Y-17775984D02*
X7555896Y-17775984D01*
X7555896Y-17775984D02*
X7574944Y-17766460D01*
X7574944Y-17766460D02*
X7584468Y-17756936D01*
X7584468Y-17756936D02*
X7593991Y-17737889D01*
X7593991Y-17737889D02*
X7593991Y-17699793D01*
X7593991Y-17699793D02*
X7584468Y-17680746D01*
X7584468Y-17680746D02*
X7574944Y-17671222D01*
X7574944Y-17671222D02*
X7555896Y-17661698D01*
X7832087Y-17775984D02*
X7832087Y-17575984D01*
X7917801Y-17775984D02*
X7917801Y-17671222D01*
X7917801Y-17671222D02*
X7908277Y-17652174D01*
X7908277Y-17652174D02*
X7889230Y-17642650D01*
X7889230Y-17642650D02*
X7860658Y-17642650D01*
X7860658Y-17642650D02*
X7841610Y-17652174D01*
X7841610Y-17652174D02*
X7832087Y-17661698D01*
X8041610Y-17775984D02*
X8022563Y-17766460D01*
X8022563Y-17766460D02*
X8013039Y-17756936D01*
X8013039Y-17756936D02*
X8003515Y-17737889D01*
X8003515Y-17737889D02*
X8003515Y-17680746D01*
X8003515Y-17680746D02*
X8013039Y-17661698D01*
X8013039Y-17661698D02*
X8022563Y-17652174D01*
X8022563Y-17652174D02*
X8041610Y-17642650D01*
X8041610Y-17642650D02*
X8070182Y-17642650D01*
X8070182Y-17642650D02*
X8089230Y-17652174D01*
X8089230Y-17652174D02*
X8098753Y-17661698D01*
X8098753Y-17661698D02*
X8108277Y-17680746D01*
X8108277Y-17680746D02*
X8108277Y-17737889D01*
X8108277Y-17737889D02*
X8098753Y-17756936D01*
X8098753Y-17756936D02*
X8089230Y-17766460D01*
X8089230Y-17766460D02*
X8070182Y-17775984D01*
X8070182Y-17775984D02*
X8041610Y-17775984D01*
X8222563Y-17775984D02*
X8203515Y-17766460D01*
X8203515Y-17766460D02*
X8193991Y-17747412D01*
X8193991Y-17747412D02*
X8193991Y-17575984D01*
X8374944Y-17766460D02*
X8355896Y-17775984D01*
X8355896Y-17775984D02*
X8317801Y-17775984D01*
X8317801Y-17775984D02*
X8298753Y-17766460D01*
X8298753Y-17766460D02*
X8289230Y-17747412D01*
X8289230Y-17747412D02*
X8289230Y-17671222D01*
X8289230Y-17671222D02*
X8298753Y-17652174D01*
X8298753Y-17652174D02*
X8317801Y-17642650D01*
X8317801Y-17642650D02*
X8355896Y-17642650D01*
X8355896Y-17642650D02*
X8374944Y-17652174D01*
X8374944Y-17652174D02*
X8384468Y-17671222D01*
X8384468Y-17671222D02*
X8384468Y-17690270D01*
X8384468Y-17690270D02*
X8289230Y-17709317D01*
X8460658Y-17766460D02*
X8479706Y-17775984D01*
X8479706Y-17775984D02*
X8517801Y-17775984D01*
X8517801Y-17775984D02*
X8536849Y-17766460D01*
X8536849Y-17766460D02*
X8546373Y-17747412D01*
X8546373Y-17747412D02*
X8546373Y-17737889D01*
X8546373Y-17737889D02*
X8536849Y-17718841D01*
X8536849Y-17718841D02*
X8517801Y-17709317D01*
X8517801Y-17709317D02*
X8489230Y-17709317D01*
X8489230Y-17709317D02*
X8470182Y-17699793D01*
X8470182Y-17699793D02*
X8460658Y-17680746D01*
X8460658Y-17680746D02*
X8460658Y-17671222D01*
X8460658Y-17671222D02*
X8470182Y-17652174D01*
X8470182Y-17652174D02*
X8489230Y-17642650D01*
X8489230Y-17642650D02*
X8517801Y-17642650D01*
X8517801Y-17642650D02*
X8536849Y-17652174D01*
X8613039Y-17852174D02*
X8622563Y-17842650D01*
X8622563Y-17842650D02*
X8641611Y-17814079D01*
X8641611Y-17814079D02*
X8651134Y-17795031D01*
X8651134Y-17795031D02*
X8660658Y-17766460D01*
X8660658Y-17766460D02*
X8670182Y-17718841D01*
X8670182Y-17718841D02*
X8670182Y-17680746D01*
X8670182Y-17680746D02*
X8660658Y-17633127D01*
X8660658Y-17633127D02*
X8651134Y-17604555D01*
X8651134Y-17604555D02*
X8641611Y-17585508D01*
X8641611Y-17585508D02*
X8622563Y-17556936D01*
X8622563Y-17556936D02*
X8613039Y-17547412D01*
D13*
X3587500Y-18008500D02*
X3647500Y-17948500D01*
X3587500Y-17888500D01*
X3527500Y-17948500D01*
X3587500Y-18008500D01*
D11*
X4013039Y-18039984D02*
X3898753Y-18039984D01*
X3955896Y-18039984D02*
X3955896Y-17839984D01*
X3955896Y-17839984D02*
X3936848Y-17868555D01*
X3936848Y-17868555D02*
X3917801Y-17887603D01*
X3917801Y-17887603D02*
X3898753Y-17897127D01*
X4098753Y-18020936D02*
X4108277Y-18030460D01*
X4108277Y-18030460D02*
X4098753Y-18039984D01*
X4098753Y-18039984D02*
X4089229Y-18030460D01*
X4089229Y-18030460D02*
X4098753Y-18020936D01*
X4098753Y-18020936D02*
X4098753Y-18039984D01*
X4184467Y-17859031D02*
X4193991Y-17849508D01*
X4193991Y-17849508D02*
X4213039Y-17839984D01*
X4213039Y-17839984D02*
X4260658Y-17839984D01*
X4260658Y-17839984D02*
X4279705Y-17849508D01*
X4279705Y-17849508D02*
X4289229Y-17859031D01*
X4289229Y-17859031D02*
X4298753Y-17878079D01*
X4298753Y-17878079D02*
X4298753Y-17897127D01*
X4298753Y-17897127D02*
X4289229Y-17925698D01*
X4289229Y-17925698D02*
X4174943Y-18039984D01*
X4174943Y-18039984D02*
X4298753Y-18039984D01*
X4422563Y-17839984D02*
X4441610Y-17839984D01*
X4441610Y-17839984D02*
X4460658Y-17849508D01*
X4460658Y-17849508D02*
X4470182Y-17859031D01*
X4470182Y-17859031D02*
X4479705Y-17878079D01*
X4479705Y-17878079D02*
X4489229Y-17916174D01*
X4489229Y-17916174D02*
X4489229Y-17963793D01*
X4489229Y-17963793D02*
X4479705Y-18001889D01*
X4479705Y-18001889D02*
X4470182Y-18020936D01*
X4470182Y-18020936D02*
X4460658Y-18030460D01*
X4460658Y-18030460D02*
X4441610Y-18039984D01*
X4441610Y-18039984D02*
X4422563Y-18039984D01*
X4422563Y-18039984D02*
X4403515Y-18030460D01*
X4403515Y-18030460D02*
X4393991Y-18020936D01*
X4393991Y-18020936D02*
X4384467Y-18001889D01*
X4384467Y-18001889D02*
X4374944Y-17963793D01*
X4374944Y-17963793D02*
X4374944Y-17916174D01*
X4374944Y-17916174D02*
X4384467Y-17878079D01*
X4384467Y-17878079D02*
X4393991Y-17859031D01*
X4393991Y-17859031D02*
X4403515Y-17849508D01*
X4403515Y-17849508D02*
X4422563Y-17839984D01*
X4613039Y-17839984D02*
X4632086Y-17839984D01*
X4632086Y-17839984D02*
X4651134Y-17849508D01*
X4651134Y-17849508D02*
X4660658Y-17859031D01*
X4660658Y-17859031D02*
X4670182Y-17878079D01*
X4670182Y-17878079D02*
X4679705Y-17916174D01*
X4679705Y-17916174D02*
X4679705Y-17963793D01*
X4679705Y-17963793D02*
X4670182Y-18001889D01*
X4670182Y-18001889D02*
X4660658Y-18020936D01*
X4660658Y-18020936D02*
X4651134Y-18030460D01*
X4651134Y-18030460D02*
X4632086Y-18039984D01*
X4632086Y-18039984D02*
X4613039Y-18039984D01*
X4613039Y-18039984D02*
X4593991Y-18030460D01*
X4593991Y-18030460D02*
X4584467Y-18020936D01*
X4584467Y-18020936D02*
X4574944Y-18001889D01*
X4574944Y-18001889D02*
X4565420Y-17963793D01*
X4565420Y-17963793D02*
X4565420Y-17916174D01*
X4565420Y-17916174D02*
X4574944Y-17878079D01*
X4574944Y-17878079D02*
X4584467Y-17859031D01*
X4584467Y-17859031D02*
X4593991Y-17849508D01*
X4593991Y-17849508D02*
X4613039Y-17839984D01*
X4765420Y-18039984D02*
X4765420Y-17906650D01*
X4765420Y-17925698D02*
X4774944Y-17916174D01*
X4774944Y-17916174D02*
X4793991Y-17906650D01*
X4793991Y-17906650D02*
X4822563Y-17906650D01*
X4822563Y-17906650D02*
X4841610Y-17916174D01*
X4841610Y-17916174D02*
X4851134Y-17935222D01*
X4851134Y-17935222D02*
X4851134Y-18039984D01*
X4851134Y-17935222D02*
X4860658Y-17916174D01*
X4860658Y-17916174D02*
X4879705Y-17906650D01*
X4879705Y-17906650D02*
X4908277Y-17906650D01*
X4908277Y-17906650D02*
X4927325Y-17916174D01*
X4927325Y-17916174D02*
X4936848Y-17935222D01*
X4936848Y-17935222D02*
X4936848Y-18039984D01*
X5032086Y-18039984D02*
X5032086Y-17906650D01*
X5032086Y-17925698D02*
X5041610Y-17916174D01*
X5041610Y-17916174D02*
X5060658Y-17906650D01*
X5060658Y-17906650D02*
X5089229Y-17906650D01*
X5089229Y-17906650D02*
X5108277Y-17916174D01*
X5108277Y-17916174D02*
X5117801Y-17935222D01*
X5117801Y-17935222D02*
X5117801Y-18039984D01*
X5117801Y-17935222D02*
X5127325Y-17916174D01*
X5127325Y-17916174D02*
X5146372Y-17906650D01*
X5146372Y-17906650D02*
X5174944Y-17906650D01*
X5174944Y-17906650D02*
X5193991Y-17916174D01*
X5193991Y-17916174D02*
X5203515Y-17935222D01*
X5203515Y-17935222D02*
X5203515Y-18039984D01*
X5593991Y-17830460D02*
X5422563Y-18087603D01*
X5851134Y-17839984D02*
X5870182Y-17839984D01*
X5870182Y-17839984D02*
X5889229Y-17849508D01*
X5889229Y-17849508D02*
X5898753Y-17859031D01*
X5898753Y-17859031D02*
X5908277Y-17878079D01*
X5908277Y-17878079D02*
X5917801Y-17916174D01*
X5917801Y-17916174D02*
X5917801Y-17963793D01*
X5917801Y-17963793D02*
X5908277Y-18001889D01*
X5908277Y-18001889D02*
X5898753Y-18020936D01*
X5898753Y-18020936D02*
X5889229Y-18030460D01*
X5889229Y-18030460D02*
X5870182Y-18039984D01*
X5870182Y-18039984D02*
X5851134Y-18039984D01*
X5851134Y-18039984D02*
X5832086Y-18030460D01*
X5832086Y-18030460D02*
X5822563Y-18020936D01*
X5822563Y-18020936D02*
X5813039Y-18001889D01*
X5813039Y-18001889D02*
X5803515Y-17963793D01*
X5803515Y-17963793D02*
X5803515Y-17916174D01*
X5803515Y-17916174D02*
X5813039Y-17878079D01*
X5813039Y-17878079D02*
X5822563Y-17859031D01*
X5822563Y-17859031D02*
X5832086Y-17849508D01*
X5832086Y-17849508D02*
X5851134Y-17839984D01*
X6003515Y-18020936D02*
X6013039Y-18030460D01*
X6013039Y-18030460D02*
X6003515Y-18039984D01*
X6003515Y-18039984D02*
X5993991Y-18030460D01*
X5993991Y-18030460D02*
X6003515Y-18020936D01*
X6003515Y-18020936D02*
X6003515Y-18039984D01*
X6136848Y-17839984D02*
X6155896Y-17839984D01*
X6155896Y-17839984D02*
X6174944Y-17849508D01*
X6174944Y-17849508D02*
X6184467Y-17859031D01*
X6184467Y-17859031D02*
X6193991Y-17878079D01*
X6193991Y-17878079D02*
X6203515Y-17916174D01*
X6203515Y-17916174D02*
X6203515Y-17963793D01*
X6203515Y-17963793D02*
X6193991Y-18001889D01*
X6193991Y-18001889D02*
X6184467Y-18020936D01*
X6184467Y-18020936D02*
X6174944Y-18030460D01*
X6174944Y-18030460D02*
X6155896Y-18039984D01*
X6155896Y-18039984D02*
X6136848Y-18039984D01*
X6136848Y-18039984D02*
X6117801Y-18030460D01*
X6117801Y-18030460D02*
X6108277Y-18020936D01*
X6108277Y-18020936D02*
X6098753Y-18001889D01*
X6098753Y-18001889D02*
X6089229Y-17963793D01*
X6089229Y-17963793D02*
X6089229Y-17916174D01*
X6089229Y-17916174D02*
X6098753Y-17878079D01*
X6098753Y-17878079D02*
X6108277Y-17859031D01*
X6108277Y-17859031D02*
X6117801Y-17849508D01*
X6117801Y-17849508D02*
X6136848Y-17839984D01*
X6374944Y-17906650D02*
X6374944Y-18039984D01*
X6327325Y-17830460D02*
X6279706Y-17973317D01*
X6279706Y-17973317D02*
X6403515Y-17973317D01*
X6460658Y-17839984D02*
X6593991Y-17839984D01*
X6593991Y-17839984D02*
X6508277Y-18039984D01*
X6660658Y-17859031D02*
X6670182Y-17849508D01*
X6670182Y-17849508D02*
X6689229Y-17839984D01*
X6689229Y-17839984D02*
X6736848Y-17839984D01*
X6736848Y-17839984D02*
X6755896Y-17849508D01*
X6755896Y-17849508D02*
X6765420Y-17859031D01*
X6765420Y-17859031D02*
X6774944Y-17878079D01*
X6774944Y-17878079D02*
X6774944Y-17897127D01*
X6774944Y-17897127D02*
X6765420Y-17925698D01*
X6765420Y-17925698D02*
X6651134Y-18039984D01*
X6651134Y-18039984D02*
X6774944Y-18039984D01*
X6851134Y-17839984D02*
X6851134Y-17878079D01*
X6927325Y-17839984D02*
X6927325Y-17878079D01*
X7222563Y-18116174D02*
X7213039Y-18106650D01*
X7213039Y-18106650D02*
X7193991Y-18078079D01*
X7193991Y-18078079D02*
X7184468Y-18059031D01*
X7184468Y-18059031D02*
X7174944Y-18030460D01*
X7174944Y-18030460D02*
X7165420Y-17982841D01*
X7165420Y-17982841D02*
X7165420Y-17944746D01*
X7165420Y-17944746D02*
X7174944Y-17897127D01*
X7174944Y-17897127D02*
X7184468Y-17868555D01*
X7184468Y-17868555D02*
X7193991Y-17849508D01*
X7193991Y-17849508D02*
X7213039Y-17820936D01*
X7213039Y-17820936D02*
X7222563Y-17811412D01*
X7384468Y-17906650D02*
X7384468Y-18039984D01*
X7336848Y-17830460D02*
X7289229Y-17973317D01*
X7289229Y-17973317D02*
X7413039Y-17973317D01*
X7641610Y-18039984D02*
X7641610Y-17839984D01*
X7727325Y-18039984D02*
X7727325Y-17935222D01*
X7727325Y-17935222D02*
X7717801Y-17916174D01*
X7717801Y-17916174D02*
X7698753Y-17906650D01*
X7698753Y-17906650D02*
X7670182Y-17906650D01*
X7670182Y-17906650D02*
X7651134Y-17916174D01*
X7651134Y-17916174D02*
X7641610Y-17925698D01*
X7851134Y-18039984D02*
X7832087Y-18030460D01*
X7832087Y-18030460D02*
X7822563Y-18020936D01*
X7822563Y-18020936D02*
X7813039Y-18001889D01*
X7813039Y-18001889D02*
X7813039Y-17944746D01*
X7813039Y-17944746D02*
X7822563Y-17925698D01*
X7822563Y-17925698D02*
X7832087Y-17916174D01*
X7832087Y-17916174D02*
X7851134Y-17906650D01*
X7851134Y-17906650D02*
X7879706Y-17906650D01*
X7879706Y-17906650D02*
X7898753Y-17916174D01*
X7898753Y-17916174D02*
X7908277Y-17925698D01*
X7908277Y-17925698D02*
X7917801Y-17944746D01*
X7917801Y-17944746D02*
X7917801Y-18001889D01*
X7917801Y-18001889D02*
X7908277Y-18020936D01*
X7908277Y-18020936D02*
X7898753Y-18030460D01*
X7898753Y-18030460D02*
X7879706Y-18039984D01*
X7879706Y-18039984D02*
X7851134Y-18039984D01*
X8032087Y-18039984D02*
X8013039Y-18030460D01*
X8013039Y-18030460D02*
X8003515Y-18011412D01*
X8003515Y-18011412D02*
X8003515Y-17839984D01*
X8184468Y-18030460D02*
X8165420Y-18039984D01*
X8165420Y-18039984D02*
X8127325Y-18039984D01*
X8127325Y-18039984D02*
X8108277Y-18030460D01*
X8108277Y-18030460D02*
X8098753Y-18011412D01*
X8098753Y-18011412D02*
X8098753Y-17935222D01*
X8098753Y-17935222D02*
X8108277Y-17916174D01*
X8108277Y-17916174D02*
X8127325Y-17906650D01*
X8127325Y-17906650D02*
X8165420Y-17906650D01*
X8165420Y-17906650D02*
X8184468Y-17916174D01*
X8184468Y-17916174D02*
X8193991Y-17935222D01*
X8193991Y-17935222D02*
X8193991Y-17954270D01*
X8193991Y-17954270D02*
X8098753Y-17973317D01*
X8270182Y-18030460D02*
X8289230Y-18039984D01*
X8289230Y-18039984D02*
X8327325Y-18039984D01*
X8327325Y-18039984D02*
X8346372Y-18030460D01*
X8346372Y-18030460D02*
X8355896Y-18011412D01*
X8355896Y-18011412D02*
X8355896Y-18001889D01*
X8355896Y-18001889D02*
X8346372Y-17982841D01*
X8346372Y-17982841D02*
X8327325Y-17973317D01*
X8327325Y-17973317D02*
X8298753Y-17973317D01*
X8298753Y-17973317D02*
X8279706Y-17963793D01*
X8279706Y-17963793D02*
X8270182Y-17944746D01*
X8270182Y-17944746D02*
X8270182Y-17935222D01*
X8270182Y-17935222D02*
X8279706Y-17916174D01*
X8279706Y-17916174D02*
X8298753Y-17906650D01*
X8298753Y-17906650D02*
X8327325Y-17906650D01*
X8327325Y-17906650D02*
X8346372Y-17916174D01*
X8422563Y-18116174D02*
X8432087Y-18106650D01*
X8432087Y-18106650D02*
X8451134Y-18078079D01*
X8451134Y-18078079D02*
X8460658Y-18059031D01*
X8460658Y-18059031D02*
X8470182Y-18030460D01*
X8470182Y-18030460D02*
X8479706Y-17982841D01*
X8479706Y-17982841D02*
X8479706Y-17944746D01*
X8479706Y-17944746D02*
X8470182Y-17897127D01*
X8470182Y-17897127D02*
X8460658Y-17868555D01*
X8460658Y-17868555D02*
X8451134Y-17849508D01*
X8451134Y-17849508D02*
X8432087Y-17820936D01*
X8432087Y-17820936D02*
X8422563Y-17811412D01*
M02*
