M48
; DRILL file {KiCad 8.0.1} date 2024-04-28T12:21:21+0200
; FORMAT={-:-/ absolute / inch / decimal}
; #@! TF.CreationDate,2024-04-28T12:21:21+02:00
; #@! TF.GenerationSoftware,Kicad,Pcbnew,8.0.1
; #@! TF.FileFunction,Plated,1,2,PTH
FMAT,2
INCH
; #@! TA.AperFunction,Plated,PTH,ComponentDrill
T1C0.0295
; #@! TA.AperFunction,Plated,PTH,ComponentDrill
T2C0.0315
; #@! TA.AperFunction,Plated,PTH,ComponentDrill
T3C0.0354
; #@! TA.AperFunction,Plated,PTH,ComponentDrill
T4C0.0394
; #@! TA.AperFunction,Plated,PTH,ComponentDrill
T5C0.0472
%
G90
G05
T1
X1.6142Y-4.7835
X1.6142Y-4.8622
X1.6142Y-4.9409
X1.6142Y-5.0197
X4.0535Y-4.4094
X4.1035Y-4.4094
X4.1535Y-4.4094
T2
X2.2047Y-4.6984
X2.2047Y-5.0984
X2.4213Y-4.7047
X2.4213Y-5.1047
X2.6575Y-4.7047
X2.6575Y-5.1047
X3.2677Y-4.7047
X3.2677Y-5.1047
X3.5039Y-4.7047
X3.5039Y-5.1047
X3.7402Y-4.7047
X3.7402Y-5.1047
X3.9567Y-4.7047
X3.9567Y-5.1047
X4.1929Y-4.7047
X4.1929Y-5.1047
T3
X2.1156Y-3.6417
X2.1156Y-6.1614
X2.2156Y-3.6417
X2.2156Y-6.1614
X3.6116Y-3.6417
X3.6116Y-6.1614
X3.7116Y-3.6417
X3.7116Y-6.1614
X4.7533Y-4.811
X4.8533Y-4.811
T4
X2.1575Y-3.8862
X2.1575Y-3.9862
X2.2575Y-3.8862
X2.2575Y-3.9862
X2.3575Y-3.8862
X2.3575Y-3.9862
X2.4575Y-3.8862
X2.4575Y-3.9862
X2.5575Y-3.8862
X2.5575Y-3.9862
X2.6575Y-3.8862
X2.6575Y-3.9862
X2.7575Y-3.8862
X2.7575Y-3.9862
X2.8575Y-3.8862
X2.8575Y-3.9862
X2.9575Y-3.8862
X2.9575Y-3.9862
X3.0575Y-3.8862
X3.0575Y-3.9862
X3.1575Y-3.8862
X3.1575Y-3.9862
X3.2575Y-3.8862
X3.2575Y-3.9862
X3.3575Y-3.8862
X3.3575Y-3.9862
X3.4575Y-3.8862
X3.4575Y-3.9862
X3.5575Y-3.8862
X3.5575Y-3.9862
X3.6575Y-3.8862
X3.6575Y-3.9862
X3.7575Y-3.8862
X3.7575Y-3.9862
X3.8575Y-3.8862
X3.8575Y-3.9862
X3.9575Y-3.8862
X3.9575Y-3.9862
X4.0575Y-3.8862
X4.0575Y-3.9862
X4.6567Y-3.6614
X4.6567Y-3.9094
X4.6567Y-5.8937
X4.6567Y-6.1417
X4.7567Y-3.6614
X4.7567Y-3.9094
X4.7567Y-5.8937
X4.7567Y-6.1417
X4.8031Y-4.1811
X4.8031Y-4.4803
X4.8567Y-3.6614
X4.8567Y-3.9094
X4.8567Y-5.8937
X4.8567Y-6.1417
X4.9567Y-3.6614
X4.9567Y-3.9094
X4.9567Y-5.8937
X4.9567Y-6.1417
T5
X4.7047Y-5.1181
X4.7047Y-5.6102
X4.9016Y-5.1181
X4.9016Y-5.6102
M30
