%TF.GenerationSoftware,KiCad,Pcbnew,8.0.1*%
%TF.CreationDate,2024-04-28T12:21:07+02:00*%
%TF.ProjectId,IoT-Project,496f542d-5072-46f6-9a65-63742e6b6963,rev?*%
%TF.SameCoordinates,Original*%
%TF.FileFunction,Copper,L1,Top*%
%TF.FilePolarity,Positive*%
%FSLAX46Y46*%
G04 Gerber Fmt 4.6, Leading zero omitted, Abs format (unit mm)*
G04 Created by KiCad (PCBNEW 8.0.1) date 2024-04-28 12:21:07*
%MOMM*%
%LPD*%
G01*
G04 APERTURE LIST*
G04 Aperture macros list*
%AMRoundRect*
0 Rectangle with rounded corners*
0 $1 Rounding radius*
0 $2 $3 $4 $5 $6 $7 $8 $9 X,Y pos of 4 corners*
0 Add a 4 corners polygon primitive as box body*
4,1,4,$2,$3,$4,$5,$6,$7,$8,$9,$2,$3,0*
0 Add four circle primitives for the rounded corners*
1,1,$1+$1,$2,$3*
1,1,$1+$1,$4,$5*
1,1,$1+$1,$6,$7*
1,1,$1+$1,$8,$9*
0 Add four rect primitives between the rounded corners*
20,1,$1+$1,$2,$3,$4,$5,0*
20,1,$1+$1,$4,$5,$6,$7,0*
20,1,$1+$1,$6,$7,$8,$9,0*
20,1,$1+$1,$8,$9,$2,$3,0*%
G04 Aperture macros list end*
%TA.AperFunction,ComponentPad*%
%ADD10R,1.800000X1.800000*%
%TD*%
%TA.AperFunction,ComponentPad*%
%ADD11C,1.800000*%
%TD*%
%TA.AperFunction,ComponentPad*%
%ADD12C,1.600000*%
%TD*%
%TA.AperFunction,ComponentPad*%
%ADD13O,1.600000X1.600000*%
%TD*%
%TA.AperFunction,ComponentPad*%
%ADD14R,1.700000X1.700000*%
%TD*%
%TA.AperFunction,ComponentPad*%
%ADD15O,1.700000X1.700000*%
%TD*%
%TA.AperFunction,ComponentPad*%
%ADD16R,1.600000X1.600000*%
%TD*%
%TA.AperFunction,ComponentPad*%
%ADD17O,2.500000X3.000000*%
%TD*%
%TA.AperFunction,ComponentPad*%
%ADD18R,1.050000X1.500000*%
%TD*%
%TA.AperFunction,ComponentPad*%
%ADD19O,1.050000X1.500000*%
%TD*%
%TA.AperFunction,ComponentPad*%
%ADD20RoundRect,0.250000X0.625000X-0.350000X0.625000X0.350000X-0.625000X0.350000X-0.625000X-0.350000X0*%
%TD*%
%TA.AperFunction,ComponentPad*%
%ADD21O,1.750000X1.200000*%
%TD*%
%TA.AperFunction,Conductor*%
%ADD22C,0.200000*%
%TD*%
%TA.AperFunction,Profile*%
%ADD23C,0.050000*%
%TD*%
G04 APERTURE END LIST*
D10*
%TO.P,S4,1,K*%
%TO.N,GND*%
X56275000Y-92500000D03*
D11*
%TO.P,S4,2,A*%
%TO.N,Net-(S4-A)*%
X53735000Y-92500000D03*
%TD*%
D12*
%TO.P,RLED2,1*%
%TO.N,/Sensor 2*%
X83000000Y-119500000D03*
D13*
%TO.P,RLED2,2*%
%TO.N,Net-(S2-A)*%
X83000000Y-129660000D03*
%TD*%
D12*
%TO.P,RLED0,1*%
%TO.N,/green*%
X100500000Y-119500000D03*
D13*
%TO.P,RLED0,2*%
%TO.N,Net-(Green1-A)*%
X100500000Y-129660000D03*
%TD*%
D10*
%TO.P,Green1,1,K*%
%TO.N,GND*%
X123275000Y-122200000D03*
D11*
%TO.P,Green1,2,A*%
%TO.N,Net-(Green1-A)*%
X120735000Y-122200000D03*
%TD*%
D14*
%TO.P,SEN2,1,Pin_1*%
%TO.N,/SDA*%
X125900000Y-149700000D03*
D15*
%TO.P,SEN2,2,Pin_2*%
%TO.N,/SLC*%
X123360000Y-149700000D03*
%TO.P,SEN2,3,Pin_3*%
%TO.N,GND*%
X120820000Y-149700000D03*
%TO.P,SEN2,4,Pin_4*%
%TO.N,+3.3V*%
X118280000Y-149700000D03*
%TD*%
D12*
%TO.P,RSW1,1*%
%TO.N,+3.3V*%
X67500000Y-119500000D03*
D13*
%TO.P,RSW1,2*%
%TO.N,Net-(RSW1-Pad2)*%
X67500000Y-129660000D03*
%TD*%
D16*
%TO.P,BZ1,1,+*%
%TO.N,+5V*%
X122000000Y-106200000D03*
D12*
%TO.P,BZ1,2,-*%
%TO.N,Net-(BZ1--)*%
X122000000Y-113800000D03*
%TD*%
D17*
%TO.P,SW1,1,1*%
%TO.N,GND*%
X124500000Y-130000000D03*
X124500000Y-142500000D03*
%TO.P,SW1,2,2*%
%TO.N,Net-(RSW1-Pad2)*%
X119500000Y-130000000D03*
X119500000Y-142500000D03*
%TD*%
D12*
%TO.P,RLED1,1*%
%TO.N,/Sensor 1*%
X61500000Y-119500000D03*
D13*
%TO.P,RLED1,2*%
%TO.N,Net-(S1-A)*%
X61500000Y-129660000D03*
%TD*%
D12*
%TO.P,RBUZZ1,1*%
%TO.N,/buzzer*%
X106500000Y-119500000D03*
D13*
%TO.P,RBUZZ1,2*%
%TO.N,Net-(TRANS1-B)*%
X106500000Y-129660000D03*
%TD*%
D12*
%TO.P,RLED4,1*%
%TO.N,/Sensor 4*%
X56000000Y-129500000D03*
D13*
%TO.P,RLED4,2*%
%TO.N,Net-(S4-A)*%
X56000000Y-119340000D03*
%TD*%
D18*
%TO.P,TRANS1,1,E*%
%TO.N,GND*%
X102960000Y-112000000D03*
D19*
%TO.P,TRANS1,2,B*%
%TO.N,Net-(TRANS1-B)*%
X104230000Y-112000000D03*
%TO.P,TRANS1,3,C*%
%TO.N,Net-(BZ1--)*%
X105500000Y-112000000D03*
%TD*%
D14*
%TO.P,SEN1,1,Pin_1*%
%TO.N,/SDA*%
X125900000Y-156000000D03*
D15*
%TO.P,SEN1,2,Pin_2*%
%TO.N,/SLC*%
X123360000Y-156000000D03*
%TO.P,SEN1,3,Pin_3*%
%TO.N,GND*%
X120820000Y-156000000D03*
%TO.P,SEN1,4,Pin_4*%
%TO.N,+3.3V*%
X118280000Y-156000000D03*
%TD*%
D12*
%TO.P,RSW2,1*%
%TO.N,/switch*%
X95000000Y-119500000D03*
D13*
%TO.P,RSW2,2*%
%TO.N,Net-(RSW1-Pad2)*%
X95000000Y-129660000D03*
%TD*%
D20*
%TO.P,LID1,1,Pin_1*%
%TO.N,/Lidar-UART*%
X41000000Y-127500000D03*
D21*
%TO.P,LID1,2,Pin_2*%
%TO.N,/Lidar*%
X41000000Y-125500000D03*
%TO.P,LID1,3,Pin_3*%
%TO.N,GND*%
X41000000Y-123500000D03*
%TO.P,LID1,4,Pin_4*%
%TO.N,+5V*%
X41000000Y-121500000D03*
%TD*%
D10*
%TO.P,S2,1,K*%
%TO.N,GND*%
X94275000Y-156500000D03*
D11*
%TO.P,S2,2,A*%
%TO.N,Net-(S2-A)*%
X91735000Y-156500000D03*
%TD*%
D12*
%TO.P,RLED3,1*%
%TO.N,/Sensor 3*%
X89000000Y-119500000D03*
D13*
%TO.P,RLED3,2*%
%TO.N,Net-(S3-A)*%
X89000000Y-129660000D03*
%TD*%
D14*
%TO.P,SEN4,1,Pin_1*%
%TO.N,/SDA*%
X125900000Y-93000000D03*
D15*
%TO.P,SEN4,2,Pin_2*%
%TO.N,/SLC*%
X123360000Y-93000000D03*
%TO.P,SEN4,3,Pin_3*%
%TO.N,GND*%
X120820000Y-93000000D03*
%TO.P,SEN4,4,Pin_4*%
%TO.N,+3.3V*%
X118280000Y-93000000D03*
%TD*%
D14*
%TO.P,SEN3,1,Pin_1*%
%TO.N,/SDA*%
X125900000Y-99300000D03*
D15*
%TO.P,SEN3,2,Pin_2*%
%TO.N,/SLC*%
X123360000Y-99300000D03*
%TO.P,SEN3,3,Pin_3*%
%TO.N,GND*%
X120820000Y-99300000D03*
%TO.P,SEN3,4,Pin_4*%
%TO.N,+3.3V*%
X118280000Y-99300000D03*
%TD*%
D10*
%TO.P,S1,1,K*%
%TO.N,GND*%
X56275000Y-156500000D03*
D11*
%TO.P,S1,2,A*%
%TO.N,Net-(S1-A)*%
X53735000Y-156500000D03*
%TD*%
D14*
%TO.P,J1,1,3V3*%
%TO.N,+3.3V*%
X54800000Y-101250000D03*
D15*
%TO.P,J1,2,5V*%
%TO.N,+5V*%
X54800000Y-98710000D03*
%TO.P,J1,3,SDA/GPIO2*%
%TO.N,/SDA*%
X57340000Y-101250000D03*
%TO.P,J1,4,5V*%
%TO.N,+5V*%
X57340000Y-98710000D03*
%TO.P,J1,5,SCL/GPIO3*%
%TO.N,/SLC*%
X59880000Y-101250000D03*
%TO.P,J1,6,GND*%
%TO.N,GND*%
X59880000Y-98710000D03*
%TO.P,J1,7,GCLK0/GPIO4*%
%TO.N,unconnected-(J1-GCLK0{slash}GPIO4-Pad7)*%
X62420000Y-101250000D03*
%TO.P,J1,8,GPIO14/TXD*%
%TO.N,unconnected-(J1-GPIO14{slash}TXD-Pad8)*%
X62420000Y-98710000D03*
%TO.P,J1,9,GND*%
%TO.N,GND*%
X64960000Y-101250000D03*
%TO.P,J1,10,GPIO15/RXD*%
%TO.N,/Lidar-UART*%
X64960000Y-98710000D03*
%TO.P,J1,11,GPIO17*%
%TO.N,unconnected-(J1-GPIO17-Pad11)*%
X67500000Y-101250000D03*
%TO.P,J1,12,GPIO18/PWM0*%
%TO.N,unconnected-(J1-GPIO18{slash}PWM0-Pad12)*%
X67500000Y-98710000D03*
%TO.P,J1,13,GPIO27*%
%TO.N,unconnected-(J1-GPIO27-Pad13)*%
X70040000Y-101250000D03*
%TO.P,J1,14,GND*%
%TO.N,GND*%
X70040000Y-98710000D03*
%TO.P,J1,15,GPIO22*%
%TO.N,unconnected-(J1-GPIO22-Pad15)*%
X72580000Y-101250000D03*
%TO.P,J1,16,GPIO23*%
%TO.N,unconnected-(J1-GPIO23-Pad16)*%
X72580000Y-98710000D03*
%TO.P,J1,17,3V3*%
%TO.N,+3.3V*%
X75120000Y-101250000D03*
%TO.P,J1,18,GPIO24*%
%TO.N,unconnected-(J1-GPIO24-Pad18)*%
X75120000Y-98710000D03*
%TO.P,J1,19,MOSI0/GPIO10*%
%TO.N,/Sensor 1*%
X77660000Y-101250000D03*
%TO.P,J1,20,GND*%
%TO.N,GND*%
X77660000Y-98710000D03*
%TO.P,J1,21,MISO0/GPIO9*%
%TO.N,/Sensor 4*%
X80200000Y-101250000D03*
%TO.P,J1,22,GPIO25*%
%TO.N,unconnected-(J1-GPIO25-Pad22)*%
X80200000Y-98710000D03*
%TO.P,J1,23,SCLK0/GPIO11*%
%TO.N,/Sensor 2*%
X82740000Y-101250000D03*
%TO.P,J1,24,~{CE0}/GPIO8*%
%TO.N,unconnected-(J1-~{CE0}{slash}GPIO8-Pad24)*%
X82740000Y-98710000D03*
%TO.P,J1,25,GND*%
%TO.N,GND*%
X85280000Y-101250000D03*
%TO.P,J1,26,~{CE1}/GPIO7*%
%TO.N,unconnected-(J1-~{CE1}{slash}GPIO7-Pad26)*%
X85280000Y-98710000D03*
%TO.P,J1,27,ID_SD/GPIO0*%
%TO.N,unconnected-(J1-ID_SD{slash}GPIO0-Pad27)*%
X87820000Y-101250000D03*
%TO.P,J1,28,ID_SC/GPIO1*%
%TO.N,unconnected-(J1-ID_SC{slash}GPIO1-Pad28)*%
X87820000Y-98710000D03*
%TO.P,J1,29,GCLK1/GPIO5*%
%TO.N,/switch*%
X90360000Y-101250000D03*
%TO.P,J1,30,GND*%
%TO.N,GND*%
X90360000Y-98710000D03*
%TO.P,J1,31,GCLK2/GPIO6*%
%TO.N,/green*%
X92900000Y-101250000D03*
%TO.P,J1,32,PWM0/GPIO12*%
%TO.N,/Sensor 3*%
X92900000Y-98710000D03*
%TO.P,J1,33,PWM1/GPIO13*%
%TO.N,/Lidar*%
X95440000Y-101250000D03*
%TO.P,J1,34,GND*%
%TO.N,GND*%
X95440000Y-98710000D03*
%TO.P,J1,35,GPIO19/MISO1*%
%TO.N,unconnected-(J1-GPIO19{slash}MISO1-Pad35)*%
X97980000Y-101250000D03*
%TO.P,J1,36,GPIO16*%
%TO.N,unconnected-(J1-GPIO16-Pad36)*%
X97980000Y-98710000D03*
%TO.P,J1,37,GPIO26*%
%TO.N,unconnected-(J1-GPIO26-Pad37)*%
X100520000Y-101250000D03*
%TO.P,J1,38,GPIO20/MOSI1*%
%TO.N,/buzzer*%
X100520000Y-98710000D03*
%TO.P,J1,39,GND*%
%TO.N,GND*%
X103060000Y-101250000D03*
%TO.P,J1,40,GPIO21/SCLK1*%
%TO.N,unconnected-(J1-GPIO21{slash}SCLK1-Pad40)*%
X103060000Y-98710000D03*
%TD*%
D10*
%TO.P,S3,1,K*%
%TO.N,GND*%
X94275000Y-92500000D03*
D11*
%TO.P,S3,2,A*%
%TO.N,Net-(S3-A)*%
X91735000Y-92500000D03*
%TD*%
D22*
%TO.N,GND*%
X95440000Y-98710000D02*
X96730000Y-100000000D01*
X96730000Y-100000000D02*
X101810000Y-100000000D01*
X101810000Y-100000000D02*
X103060000Y-101250000D01*
X90360000Y-98710000D02*
X91650000Y-100000000D01*
X94150000Y-100000000D02*
X95440000Y-98710000D01*
X91650000Y-100000000D02*
X94150000Y-100000000D01*
X85280000Y-101250000D02*
X86530000Y-100000000D01*
X86530000Y-100000000D02*
X89070000Y-100000000D01*
X89070000Y-100000000D02*
X90360000Y-98710000D01*
X77660000Y-98710000D02*
X78950000Y-100000000D01*
X78950000Y-100000000D02*
X84030000Y-100000000D01*
X84030000Y-100000000D02*
X85280000Y-101250000D01*
%TO.N,+5V*%
X54800000Y-98710000D02*
X57340000Y-98710000D01*
%TO.N,GND*%
X70040000Y-98710000D02*
X71190000Y-97560000D01*
X121400000Y-99000000D02*
X115000000Y-105400000D01*
X120600000Y-149700000D02*
X120820000Y-149700000D01*
X121420000Y-99000000D02*
X121400000Y-99000000D01*
X76510000Y-97560000D02*
X77660000Y-98710000D01*
X68650000Y-100100000D02*
X66110000Y-100100000D01*
X66110000Y-100100000D02*
X64960000Y-101250000D01*
X68890000Y-97560000D02*
X70040000Y-98710000D01*
X59880000Y-98710000D02*
X61030000Y-97560000D01*
X115000000Y-105400000D02*
X115000000Y-144000000D01*
X61030000Y-97560000D02*
X68890000Y-97560000D01*
X115000000Y-144000000D02*
X120700000Y-149700000D01*
X71190000Y-97560000D02*
X76510000Y-97560000D01*
X70040000Y-98710000D02*
X68650000Y-100100000D01*
%TO.N,+3.3V*%
X67500000Y-109120000D02*
X75120000Y-101500000D01*
X73970000Y-102400000D02*
X75120000Y-101250000D01*
X118380000Y-149380000D02*
X114000000Y-145000000D01*
X118280000Y-149700000D02*
X118280000Y-149380000D01*
X114000000Y-145000000D02*
X114000000Y-104500000D01*
X114000000Y-104500000D02*
X118280000Y-100220000D01*
X55950000Y-102400000D02*
X73970000Y-102400000D01*
X75120000Y-101500000D02*
X75120000Y-101250000D01*
X54800000Y-101250000D02*
X55950000Y-102400000D01*
X67500000Y-119500000D02*
X67500000Y-109120000D01*
X118280000Y-100220000D02*
X118280000Y-99300000D01*
X118280000Y-100120000D02*
X118280000Y-99000000D01*
%TO.N,/Lidar*%
X95440000Y-101500000D02*
X95440000Y-101250000D01*
X71440000Y-125500000D02*
X95440000Y-101500000D01*
X41000000Y-125500000D02*
X71440000Y-125500000D01*
%TO.N,/SLC*%
X129000000Y-144000000D02*
X123800000Y-149200000D01*
X123360000Y-149700000D02*
X123700000Y-149700000D01*
X123800000Y-149200000D02*
X123800000Y-149700000D01*
X129000000Y-104940000D02*
X129000000Y-144000000D01*
X123360000Y-99300000D02*
X129000000Y-104940000D01*
%TO.N,/SDA*%
X130000000Y-104250000D02*
X126500000Y-100750000D01*
X130000000Y-145000000D02*
X130000000Y-104250000D01*
X125900000Y-149700000D02*
X125900000Y-149000000D01*
X126500000Y-100750000D02*
X126500000Y-100000000D01*
X125900000Y-100000000D02*
X125900000Y-99000000D01*
X126000000Y-149000000D02*
X130000000Y-145000000D01*
%TO.N,/Lidar-UART*%
X58600000Y-99450000D02*
X59110000Y-99960000D01*
X58000000Y-97500000D02*
X58600000Y-98100000D01*
X58600000Y-98100000D02*
X58600000Y-99450000D01*
X64960000Y-98960000D02*
X64960000Y-98710000D01*
X40452208Y-124500000D02*
X53500000Y-124500000D01*
X53500000Y-124500000D02*
X53500000Y-97500000D01*
X63960000Y-99960000D02*
X64960000Y-98960000D01*
X41000000Y-127500000D02*
X39825000Y-126325000D01*
X39825000Y-125127208D02*
X40452208Y-124500000D01*
X59110000Y-99960000D02*
X63960000Y-99960000D01*
X53500000Y-97500000D02*
X58000000Y-97500000D01*
X39825000Y-126325000D02*
X39825000Y-125127208D01*
%TO.N,Net-(TRANS1-B)*%
X104500000Y-127660000D02*
X106500000Y-129660000D01*
X104230000Y-112000000D02*
X104500000Y-112270000D01*
X104500000Y-112270000D02*
X104500000Y-127660000D01*
%TO.N,Net-(RSW1-Pad2)*%
X67500000Y-129660000D02*
X67660000Y-129660000D01*
X67660000Y-129660000D02*
X71500000Y-133500000D01*
X71500000Y-133500000D02*
X93660000Y-133500000D01*
X93660000Y-133500000D02*
X95000000Y-132160000D01*
X95000000Y-132160000D02*
X95000000Y-129660000D01*
%TD*%
D23*
X129000000Y-162500000D02*
X39000000Y-162500000D01*
X131500000Y-89000000D02*
X131500000Y-160000000D01*
X39000000Y-86500000D02*
X129000000Y-86500000D01*
X36500000Y-160000000D02*
X36500000Y-89000000D01*
X39000000Y-162500000D02*
G75*
G02*
X36500000Y-160000000I0J2500000D01*
G01*
X131500000Y-160000000D02*
G75*
G02*
X129000000Y-162500000I-2500000J0D01*
G01*
X36500000Y-89000000D02*
G75*
G02*
X39000000Y-86500000I2500000J0D01*
G01*
X129000000Y-86500000D02*
G75*
G02*
X131500000Y-89000000I0J-2500000D01*
G01*
M02*
